<?xml version="1.0" encoding="UTF-8" standalone="no"?>
<!-- Created with Inkscape (http://www.inkscape.org/) -->

<svg
   version="1.1"
   id="svg2"
   width="666.66669"
   height="666.66669"
   viewBox="0 0 666.66669 666.66669"
   sodipodi:docname="3907312.ai"
   xmlns:inkscape="http://www.inkscape.org/namespaces/inkscape"
   xmlns:sodipodi="http://sodipodi.sourceforge.net/DTD/sodipodi-0.dtd"
   xmlns="http://www.w3.org/2000/svg"
   xmlns:svg="http://www.w3.org/2000/svg">
  <defs
     id="defs6">
    <clipPath
       clipPathUnits="userSpaceOnUse"
       id="clipPath16">
      <path
         d="M 0,500 H 500 V 0 H 0 Z"
         id="path14" />
    </clipPath>
    <clipPath
       clipPathUnits="userSpaceOnUse"
       id="clipPath28">
      <path
         d="M 0,500 H 500 V 0 H 0 Z"
         id="path26" />
    </clipPath>
    <clipPath
       clipPathUnits="userSpaceOnUse"
       id="clipPath40">
      <path
         d="M 117.07,383.118 H 341.742 V 89.6467 H 117.07 Z"
         id="path38" />
    </clipPath>
    <clipPath
       clipPathUnits="userSpaceOnUse"
       id="clipPath60">
      <path
         d="M 0,500 H 500 V 0 H 0 Z"
         id="path58" />
    </clipPath>
    <clipPath
       clipPathUnits="userSpaceOnUse"
       id="clipPath264">
      <path
         d="M 0,500 H 500 V 0 H 0 Z"
         id="path262" />
    </clipPath>
    <clipPath
       clipPathUnits="userSpaceOnUse"
       id="clipPath276">
      <path
         d="m 103.127,300.158 h 50.624 V 249.73 h -50.624 z"
         id="path274" />
    </clipPath>
    <clipPath
       clipPathUnits="userSpaceOnUse"
       id="clipPath352">
      <path
         d="m 127.535,300.157 h 28.601 v -50.43 h -28.601 z"
         id="path350" />
    </clipPath>
    <clipPath
       clipPathUnits="userSpaceOnUse"
       id="clipPath368">
      <path
         d="M 0,500 H 500 V 0 H 0 Z"
         id="path366" />
    </clipPath>
    <clipPath
       clipPathUnits="userSpaceOnUse"
       id="clipPath380">
      <path
         d="M 176.383,406.138 H 277.515 V 389.569 H 176.383 Z"
         id="path378" />
    </clipPath>
    <clipPath
       clipPathUnits="userSpaceOnUse"
       id="clipPath400">
      <path
         d="m 178.62,406.14 h 98.894 v -9.97 H 178.62 Z"
         id="path398" />
    </clipPath>
    <clipPath
       clipPathUnits="userSpaceOnUse"
       id="clipPath436">
      <path
         d="M 0,500 H 500 V 0 H 0 Z"
         id="path434" />
    </clipPath>
    <clipPath
       clipPathUnits="userSpaceOnUse"
       id="clipPath444">
      <path
         d="m 350.168,378.276 h 47.644 v -57.81 h -47.644 z"
         id="path442" />
    </clipPath>
    <clipPath
       clipPathUnits="userSpaceOnUse"
       id="clipPath460">
      <path
         d="m 350.168,378.276 h 47.644 v -57.81 h -47.644 z"
         id="path458" />
    </clipPath>
    <clipPath
       clipPathUnits="userSpaceOnUse"
       id="clipPath516">
      <path
         d="M 0,500 H 500 V 0 H 0 Z"
         id="path514" />
    </clipPath>
    <clipPath
       clipPathUnits="userSpaceOnUse"
       id="clipPath528">
      <path
         d="m 343.119,299.006 h 63.313 v -59.16 h -63.313 z"
         id="path526" />
    </clipPath>
    <clipPath
       clipPathUnits="userSpaceOnUse"
       id="clipPath552">
      <path
         d="M 0,500 H 500 V 0 H 0 Z"
         id="path550" />
    </clipPath>
    <clipPath
       clipPathUnits="userSpaceOnUse"
       id="clipPath564">
      <path
         d="M 75.9472,377.126 H 127.588 V 328.695 H 75.9472 Z"
         id="path562" />
    </clipPath>
    <clipPath
       clipPathUnits="userSpaceOnUse"
       id="clipPath620">
      <path
         d="m 91.0817,366.702 h 22.7043 v -11.33 H 91.0817 Z"
         id="path618" />
    </clipPath>
    <clipPath
       clipPathUnits="userSpaceOnUse"
       id="clipPath636">
      <path
         d="m 97.4806,360.942 h 9.6674 v -9.62 h -9.6674 z"
         id="path634" />
    </clipPath>
    <clipPath
       clipPathUnits="userSpaceOnUse"
       id="clipPath652">
      <path
         d="m 101.885,364.774 h 7.873 v -7.843 h -7.873 z"
         id="path650" />
    </clipPath>
    <clipPath
       clipPathUnits="userSpaceOnUse"
       id="clipPath672">
      <path
         d="M 0,500 H 500 V 0 H 0 Z"
         id="path670" />
    </clipPath>
    <clipPath
       clipPathUnits="userSpaceOnUse"
       id="clipPath696">
      <path
         d="m 319.347,326.934 h 8.764 v -15.792 h -8.764 z"
         id="path694" />
    </clipPath>
    <clipPath
       clipPathUnits="userSpaceOnUse"
       id="clipPath720">
      <path
         d="m 269.611,310.669 h 13.844 v -22.681 h -13.844 z"
         id="path718" />
    </clipPath>
    <clipPath
       clipPathUnits="userSpaceOnUse"
       id="clipPath760">
      <path
         d="m 250.291,100.254 h 10.324 V 88.7843 h -10.324 z"
         id="path758" />
    </clipPath>
    <clipPath
       clipPathUnits="userSpaceOnUse"
       id="clipPath776">
      <path
         d="m 171.943,195.134 h 16.452 V 180.86 h -16.452 z"
         id="path774" />
    </clipPath>
    <clipPath
       clipPathUnits="userSpaceOnUse"
       id="clipPath804">
      <path
         d="m 248.633,243.327 h 16.612 V 154.42 h -16.612 z"
         id="path802" />
    </clipPath>
    <clipPath
       clipPathUnits="userSpaceOnUse"
       id="clipPath864">
      <path
         d="m 231.423,267.721 h 36.062 v -4.075 h -36.062 z"
         id="path862" />
    </clipPath>
    <clipPath
       clipPathUnits="userSpaceOnUse"
       id="clipPath900">
      <path
         d="m 246.365,337.323 h 6.68 v -8.832 h -6.68 z"
         id="path898" />
    </clipPath>
    <clipPath
       clipPathUnits="userSpaceOnUse"
       id="clipPath960">
      <path
         d="m 288.921,300.717 h 13.022 v -18.324 h -13.022 z"
         id="path958" />
    </clipPath>
    <clipPath
       clipPathUnits="userSpaceOnUse"
       id="clipPath980">
      <path
         d="m 198.022,296.669 h 13.869 V 278.88 h -13.869 z"
         id="path978" />
    </clipPath>
  </defs>
  <sodipodi:namedview
     id="namedview4"
     pagecolor="#ffffff"
     bordercolor="#000000"
     borderopacity="0.25"
     inkscape:showpageshadow="2"
     inkscape:pageopacity="0.0"
     inkscape:pagecheckerboard="0"
     inkscape:deskcolor="#d1d1d1" />
  <g
     id="g8"
     inkscape:groupmode="layer"
     inkscape:label="3907312"
     transform="matrix(1.3333333,0,0,-1.3333333,0,666.66667)">
    <g
       id="g10">
      <g
         id="g12"
         clip-path="url(#clipPath16)">
        <g
           id="g18"
           transform="translate(250,80.0537)">
          <path
             d="m 0,0 c 107.082,0 193.89,-5.068 193.89,-11.32 0,-6.252 -86.808,-11.321 -193.89,-11.321 -107.083,0 -193.89,5.069 -193.89,11.321 C -193.89,-5.068 -107.083,0 0,0"
             style="fill:#f5f5f5;fill-opacity:1;fill-rule:nonzero;stroke:none"
             id="path20" />
        </g>
      </g>
    </g>
    <g
       id="g22">
      <g
         id="g24"
         clip-path="url(#clipPath28)">
        <g
           id="g30"
           transform="translate(258.0586,364.0933)">
          <path
             d="m 0,0 c -13.848,-14.948 -20.96,-34.714 -28.78,-53.531 -7.821,-18.816 -17.382,-38.07 -34.141,-49.661 -11.902,-8.233 -30.301,-4.377 -43.151,-11.034 -20.688,-10.715 -28.896,-19.806 -33.889,-42.564 -5.938,-27.064 39.278,-96.098 82.797,-112.211 26.67,-9.875 63.901,-4.933 84.589,14.581 20.688,19.514 17.312,57.656 20.791,85.881 2.505,20.324 1.181,41.434 8.113,60.701 6.146,17.079 18.407,31.523 23.915,48.817 7.326,23.005 0.838,53.625 -18.139,69.674 C 43.466,26.417 15.049,16.244 0,0"
             style="fill:#007cff;fill-opacity:1;fill-rule:nonzero;stroke:none"
             id="path32" />
        </g>
        <g
           id="g34">
          <g
             id="g36" />
          <g
             id="g52">
            <g
               clip-path="url(#clipPath40)"
               opacity="0.899994"
               id="g50">
              <g
                 transform="translate(258.0586,364.0933)"
                 id="g44">
                <path
                   d="m 0,0 c -13.848,-14.948 -20.96,-34.714 -28.78,-53.531 -7.821,-18.816 -17.382,-38.07 -34.141,-49.661 -11.902,-8.233 -30.301,-4.377 -43.151,-11.034 -20.688,-10.715 -28.896,-19.806 -33.889,-42.564 -5.938,-27.064 39.278,-96.098 82.797,-112.211 26.67,-9.875 63.901,-4.933 84.589,14.581 20.688,19.514 17.312,57.656 20.791,85.881 2.505,20.324 1.181,41.434 8.113,60.701 6.146,17.079 18.407,31.523 23.915,48.817 7.326,23.005 0.838,53.625 -18.139,69.674 C 43.466,26.417 15.049,16.244 0,0"
                   style="fill:#ffffff;fill-opacity:1;fill-rule:nonzero;stroke:none"
                   id="path42" />
              </g>
              <g
                 transform="translate(258.0586,364.0933)"
                 id="g48">
                <path
                   d="m 0,0 c -13.848,-14.948 -20.96,-34.714 -28.78,-53.531 -7.821,-18.816 -17.382,-38.07 -34.141,-49.661 -11.902,-8.233 -30.301,-4.377 -43.151,-11.034 -20.688,-10.715 -28.896,-19.806 -33.889,-42.564 -5.938,-27.064 39.278,-96.098 82.797,-112.211 26.67,-9.875 63.901,-4.933 84.589,14.581 20.688,19.514 17.312,57.656 20.791,85.881 2.505,20.324 1.181,41.434 8.113,60.701 6.146,17.079 18.407,31.523 23.915,48.817 7.326,23.005 0.838,53.625 -18.139,69.674 C 43.466,26.417 15.049,16.244 0,0 Z"
                   style="fill:none;stroke:#ffffff;stroke-width:1;stroke-linecap:butt;stroke-linejoin:miter;stroke-miterlimit:10;stroke-dasharray:none;stroke-opacity:1"
                   id="path46" />
              </g>
            </g>
          </g>
        </g>
      </g>
    </g>
    <g
       id="g54">
      <g
         id="g56"
         clip-path="url(#clipPath60)">
        <g
           id="g62"
           transform="translate(45.3047,441.0698)">
          <path
             d="m 0,0 c -3.012,-0.006 -5.449,-2.449 -5.449,-5.46 v -271.43 c 0,-3.012 2.437,-5.454 5.449,-5.46 h 193.09 c 3.014,0.006 5.455,2.446 5.461,5.46 V -5.46 c -0.006,3.013 -2.447,5.454 -5.461,5.46 z M 193.09,-282.6 H 0 c -3.149,0.006 -5.699,2.56 -5.699,5.71 V -5.46 C -5.672,-2.33 -3.13,0.194 0,0.2 h 193.09 c 3.154,0 5.711,-2.556 5.711,-5.71 v -271.38 c 0,-3.153 -2.557,-5.71 -5.711,-5.71"
             style="fill:#e7e7e7;fill-opacity:1;fill-rule:nonzero;stroke:none"
             id="path64" />
        </g>
        <g
           id="g66"
           transform="translate(261.6055,441.0698)">
          <path
             d="m 0,0 c -3.014,-0.006 -5.455,-2.447 -5.461,-5.46 v -271.43 c 0.006,-3.014 2.447,-5.454 5.461,-5.46 h 193.1 c 3.012,0.006 5.454,2.446 5.46,5.46 V -5.46 c -0.006,3.013 -2.448,5.454 -5.46,5.46 z M 193.1,-282.6 H 0 c -3.151,0.006 -5.705,2.558 -5.711,5.71 V -5.46 C -5.678,-2.329 -3.133,0.194 0,0.2 h 193.1 c 3.126,-0.011 5.663,-2.534 5.689,-5.66 v -271.43 c 0,-3.146 -2.544,-5.699 -5.689,-5.71"
             style="fill:#e7e7e7;fill-opacity:1;fill-rule:nonzero;stroke:none"
             id="path68" />
        </g>
        <g
           id="g70"
           transform="translate(207.749,302.5415)">
          <path
             d="m 0,0 -1.369,-117.574 c -4.837,-39.109 -74.172,-70.161 -74.172,-70.161 0,0 -69.334,31.052 -74.171,70.161 L -151.163,0 -77.06,24.392 Z"
             style="fill:#f5f5f5;fill-opacity:1;fill-rule:nonzero;stroke:none"
             id="path72" />
        </g>
        <g
           id="g74"
           transform="translate(198.085,295.0986)">
          <path
             d="m 0,0 -1.194,-105.541 c -4.218,-34.108 -64.688,-61.189 -64.688,-61.189 0,0 -60.47,27.081 -64.687,61.189 L -131.835,0 -67.206,21.273 Z"
             style="fill:#e1e1e1;fill-opacity:1;fill-rule:nonzero;stroke:none"
             id="path76" />
        </g>
        <g
           id="g78"
           transform="translate(193.8369,288.437)">
          <path
             d="m 0,0 -1.119,-96.884 c -3.955,-31.976 -60.645,-57.365 -60.645,-57.365 0,0 -56.688,25.389 -60.643,57.365 L -123.594,0 -63.005,19.943 Z"
             style="fill:none;stroke:#ffffff;stroke-width:3;stroke-linecap:round;stroke-linejoin:round;stroke-miterlimit:10;stroke-dasharray:0, 33;stroke-dashoffset:0;stroke-opacity:1"
             id="path80" />
        </g>
        <path
           d="M 440.327,108.172 H 306.943 v 234.04 h 133.384 z"
           style="fill:#f5f5f5;fill-opacity:1;fill-rule:nonzero;stroke:none"
           id="path82" />
        <path
           d="M 430.642,108.172 H 316.796 v 224.842 h 113.846 z"
           style="fill:#e1e1e1;fill-opacity:1;fill-rule:nonzero;stroke:none"
           id="path84" />
        <g
           id="g86"
           transform="translate(319.9795,107.1699)">
          <path
             d="M 0,0 C -0.199,0 -0.399,0.04 -0.58,0.12 -0.76,0.19 -0.92,0.3 -1.06,0.44 -1.21,0.58 -1.319,0.75 -1.39,0.931 -1.46,1.11 -1.5,1.3 -1.5,1.5 c 0,0.391 0.16,0.78 0.44,1.061 0.34,0.349 0.861,0.5 1.35,0.41 C 0.38,2.95 0.48,2.92 0.57,2.891 0.66,2.851 0.75,2.8 0.83,2.75 0.91,2.69 0.99,2.63 1.061,2.561 1.13,2.49 1.19,2.42 1.24,2.33 1.301,2.25 1.34,2.17 1.38,2.07 1.42,1.98 1.45,1.891 1.471,1.79 1.49,1.7 1.5,1.601 1.5,1.5 1.5,1.3 1.46,1.11 1.38,0.931 1.311,0.75 1.2,0.58 1.061,0.44 0.771,0.16 0.4,0 0,0"
             style="fill:#ffffff;fill-opacity:1;fill-rule:nonzero;stroke:none"
             id="path88" />
        </g>
        <g
           id="g90"
           transform="translate(318.4795,292.8501)">
          <path
             d="M 0,0 C 0,0.83 0.67,1.5 1.5,1.5 2.33,1.5 3,0.83 3,0 3,-0.83 2.33,-1.5 1.5,-1.5 0.67,-1.5 0,-0.83 0,0 m 0,-36.83 c 0,0.82 0.67,1.5 1.5,1.5 0.83,0 1.5,-0.68 1.5,-1.5 0,-0.83 -0.67,-1.5 -1.5,-1.5 -0.83,0 -1.5,0.67 -1.5,1.5 m 0,-36.839 c 0,0.829 0.67,1.5 1.5,1.5 0.83,0 1.5,-0.671 1.5,-1.5 0,-0.831 -0.67,-1.5 -1.5,-1.5 -0.83,0 -1.5,0.669 -1.5,1.5 m 0,-36.841 c 0,0.83 0.67,1.5 1.5,1.5 0.83,0 1.5,-0.67 1.5,-1.5 0,-0.82 -0.67,-1.5 -1.5,-1.5 -0.83,0 -1.5,0.68 -1.5,1.5 m 0,-36.83 c 0,0.83 0.67,1.5 1.5,1.5 0.83,0 1.5,-0.67 1.5,-1.5 0,-0.829 -0.67,-1.5 -1.5,-1.5 -0.83,0 -1.5,0.671 -1.5,1.5"
             style="fill:#ffffff;fill-opacity:1;fill-rule:nonzero;stroke:none"
             id="path92" />
        </g>
        <g
           id="g94"
           transform="translate(319.9795,328.1899)">
          <path
             d="M 0,0 C -0.399,0 -0.79,0.16 -1.06,0.44 -1.13,0.51 -1.199,0.58 -1.25,0.67 -1.3,0.75 -1.35,0.83 -1.39,0.92 -1.43,1.02 -1.46,1.11 -1.47,1.21 -1.489,1.3 -1.5,1.4 -1.5,1.5 c 0,0.39 0.16,0.78 0.44,1.06 0.06,0.07 0.14,0.13 0.22,0.19 0.08,0.05 0.17,0.1 0.26,0.13 0.091,0.04 0.19,0.07 0.28,0.09 0.2,0.04 0.39,0.04 0.59,0 C 0.38,2.95 0.48,2.92 0.57,2.88 0.66,2.85 0.75,2.8 0.83,2.75 0.91,2.69 0.99,2.63 1.061,2.56 1.34,2.28 1.5,1.89 1.5,1.5 1.5,1.4 1.49,1.3 1.471,1.21 1.45,1.11 1.42,1.02 1.38,0.92 1.34,0.83 1.301,0.75 1.24,0.67 1.19,0.58 1.13,0.51 1.061,0.44 0.78,0.16 0.391,0 0,0"
             style="fill:#ffffff;fill-opacity:1;fill-rule:nonzero;stroke:none"
             id="path96" />
        </g>
        <g
           id="g98"
           transform="translate(354.1797,329.6899)">
          <path
             d="M 0,0 C 0,0.83 0.67,1.5 1.5,1.5 2.33,1.5 3,0.83 3,0 3,-0.83 2.33,-1.5 1.5,-1.5 0.67,-1.5 0,-0.83 0,0 m 35.7,0 c 0,0.83 0.67,1.5 1.5,1.5 0.83,0 1.5,-0.67 1.5,-1.5 0,-0.83 -0.67,-1.5 -1.5,-1.5 -0.83,0 -1.5,0.67 -1.5,1.5"
             style="fill:#ffffff;fill-opacity:1;fill-rule:nonzero;stroke:none"
             id="path100" />
        </g>
        <g
           id="g102"
           transform="translate(427.0801,328.1899)">
          <path
             d="M 0,0 C -0.101,0 -0.19,0.01 -0.29,0.03 -0.391,0.05 -0.48,0.08 -0.57,0.11 -0.66,0.15 -0.75,0.2 -0.83,0.25 -0.91,0.31 -0.99,0.37 -1.061,0.44 -1.34,0.72 -1.5,1.1 -1.5,1.5 c 0,0.39 0.16,0.78 0.439,1.06 0.071,0.07 0.151,0.13 0.231,0.18 0.08,0.06 0.17,0.11 0.26,0.14 0.09,0.04 0.179,0.07 0.28,0.09 0.189,0.04 0.39,0.04 0.59,0 C 0.39,2.95 0.479,2.92 0.58,2.88 0.67,2.85 0.75,2.8 0.83,2.74 0.92,2.69 0.989,2.63 1.06,2.56 1.34,2.28 1.5,1.89 1.5,1.5 1.5,1.1 1.34,0.72 1.06,0.44 0.989,0.37 0.92,0.31 0.83,0.25 0.75,0.2 0.67,0.15 0.58,0.11 0.479,0.08 0.39,0.05 0.3,0.03 0.2,0.01 0.1,0 0,0"
             style="fill:#ffffff;fill-opacity:1;fill-rule:nonzero;stroke:none"
             id="path104" />
        </g>
        <g
           id="g106"
           transform="translate(425.5801,292.8501)">
          <path
             d="M 0,0 C 0,0.83 0.67,1.5 1.5,1.5 2.33,1.5 3,0.83 3,0 3,-0.83 2.33,-1.5 1.5,-1.5 0.67,-1.5 0,-0.83 0,0 m 0,-36.83 c 0,0.83 0.67,1.5 1.5,1.5 0.83,0 1.5,-0.67 1.5,-1.5 0,-0.83 -0.67,-1.5 -1.5,-1.5 -0.83,0 -1.5,0.67 -1.5,1.5 m 0,-36.839 c 0,0.829 0.67,1.5 1.5,1.5 0.83,0 1.5,-0.671 1.5,-1.5 0,-0.831 -0.67,-1.5 -1.5,-1.5 -0.83,0 -1.5,0.669 -1.5,1.5 m 0,-36.841 c 0,0.83 0.67,1.5 1.5,1.5 0.83,0 1.5,-0.67 1.5,-1.5 0,-0.82 -0.67,-1.5 -1.5,-1.5 -0.83,0 -1.5,0.68 -1.5,1.5 m 0,-36.83 c 0,0.83 0.67,1.5 1.5,1.5 0.83,0 1.5,-0.67 1.5,-1.5 0,-0.829 -0.67,-1.5 -1.5,-1.5 -0.83,0 -1.5,0.671 -1.5,1.5"
             style="fill:#ffffff;fill-opacity:1;fill-rule:nonzero;stroke:none"
             id="path108" />
        </g>
        <g
           id="g110"
           transform="translate(427.0801,107.1699)">
          <path
             d="M 0,0 C -0.4,0 -0.78,0.16 -1.061,0.44 -1.34,0.721 -1.5,1.101 -1.5,1.5 c 0,0.4 0.16,0.78 0.439,1.061 0.071,0.069 0.151,0.129 0.231,0.189 0.08,0.05 0.17,0.101 0.26,0.141 0.09,0.029 0.179,0.059 0.28,0.08 0.189,0.04 0.39,0.04 0.59,0 C 0.39,2.95 0.489,2.92 0.58,2.891 0.67,2.851 0.75,2.8 0.83,2.75 0.92,2.69 0.989,2.63 1.06,2.561 1.34,2.28 1.5,1.9 1.5,1.5 1.5,1.101 1.35,0.721 1.06,0.44 0.779,0.16 0.399,0 0,0"
             style="fill:#ffffff;fill-opacity:1;fill-rule:nonzero;stroke:none"
             id="path112" />
        </g>
        <path
           d="M 53.79,107.79 H 95 v -0.25 H 53.79 Z"
           style="fill:#e1e1e1;fill-opacity:1;fill-rule:nonzero;stroke:none"
           id="path114" />
        <path
           d="M 137.67,109.79 H 179 v -0.25 h -41.33 z"
           style="fill:#e1e1e1;fill-opacity:1;fill-rule:nonzero;stroke:none"
           id="path116" />
        <path
           d="m 222.78,109.79 h 10 v -0.25 h -10 z"
           style="fill:#e1e1e1;fill-opacity:1;fill-rule:nonzero;stroke:none"
           id="path118" />
        <path
           d="m 86.58,101.25 h 46.25 V 101 H 86.58 Z"
           style="fill:#e1e1e1;fill-opacity:1;fill-rule:nonzero;stroke:none"
           id="path120" />
        <path
           d="m 271.2,107.92 h 21.6 v -0.25 h -21.6 z"
           style="fill:#e1e1e1;fill-opacity:1;fill-rule:nonzero;stroke:none"
           id="path122" />
        <path
           d="m 301.7,107.92 h 27.93 v -0.25 H 301.7 Z"
           style="fill:#e1e1e1;fill-opacity:1;fill-rule:nonzero;stroke:none"
           id="path124" />
        <path
           d="m 401.89,103.69 h 62.44 v -0.25 h -62.44 z"
           style="fill:#e1e1e1;fill-opacity:1;fill-rule:nonzero;stroke:none"
           id="path126" />
        <g
           id="g128"
           transform="translate(233.4102,412.3477)">
          <path
             d="m 0,0 h -46.065 l 2.511,28.712 H 2.512 Z"
             style="fill:#ececec;fill-opacity:1;fill-rule:nonzero;stroke:none"
             id="path130" />
        </g>
        <g
           id="g132"
           transform="translate(234.3437,444.9604)">
          <path
             d="M 0,0 -1.26,-14.994 -2.52,-33.009 H -46.827 L -44.308,0 Z"
             style="fill:#fafafa;fill-opacity:1;fill-rule:nonzero;stroke:none"
             id="path134" />
        </g>
        <g
           id="g136"
           transform="translate(230.1064,441.0562)">
          <path
             d="M 0,0 2.512,-28.71 H -43.551 L -46.063,0 h 3.917 l 1.364,2.159 h 12.409 L -26.596,0 Z"
             style="fill:#e1e1e1;fill-opacity:1;fill-rule:nonzero;stroke:none"
             id="path138" />
        </g>
        <path
           d="m 304.808,356.921 h -49.017 v 49.016 h 49.017 z"
           style="fill:#ececec;fill-opacity:1;fill-rule:nonzero;stroke:none"
           id="path140" />
        <path
           d="m 304.808,405.937 h 1.249 v -49.016 h -1.249 z"
           style="fill:#e1e1e1;fill-opacity:1;fill-rule:nonzero;stroke:none"
           id="path142" />
        <path
           d="m 300.275,361.444 h -39.961 v 39.96 h 39.961 z"
           style="fill:#f5f5f5;fill-opacity:1;fill-rule:nonzero;stroke:none"
           id="path144" />
        <path
           d="m 260.689,361.444 h -0.365 v 39.96 h 0.365 z"
           style="fill:#e1e1e1;fill-opacity:1;fill-rule:nonzero;stroke:none"
           id="path146" />
        <g
           id="g148"
           transform="translate(272.8809,385.5718)">
          <path
             d="m 0,0 c 0,-5.481 3.488,-9.925 7.791,-9.925 4.303,0 7.79,4.444 7.79,9.925 0,5.481 -3.487,9.924 -7.79,9.924 C 3.488,9.924 0,5.481 0,0"
             style="fill:#e1e1e1;fill-opacity:1;fill-rule:nonzero;stroke:none"
             id="path150" />
        </g>
        <path
           d="m 276.599,370.634 h 8.211 v 8.211 h -8.211 z"
           style="fill:#e1e1e1;fill-opacity:1;fill-rule:nonzero;stroke:none"
           id="path152" />
        <g
           id="g154"
           transform="translate(265.3955,361.4443)">
          <path
             d="m 0,0 h 30.082 v 2.796 c 0,5.324 -4.315,9.64 -9.64,9.64 H 9.64 C 4.315,12.436 0,8.12 0,2.796 Z"
             style="fill:#e1e1e1;fill-opacity:1;fill-rule:nonzero;stroke:none"
             id="path156" />
        </g>
        <g
           id="g158"
           transform="translate(264.6396,378.1221)">
          <path
             d="m 0,0 c 0,-1.636 2.963,-2.962 2.963,-2.962 0,0 2.962,1.326 2.962,2.962 0,0.776 -1.09,1.214 -1.79,1.015 -0.777,-0.221 -1.172,-1.129 -1.172,-1.129 0,0 -0.733,0.97 -1.469,1.204 C 0.749,1.327 0,0.823 0,0"
             style="fill:#e1e1e1;fill-opacity:1;fill-rule:nonzero;stroke:none"
             id="path160" />
        </g>
        <g
           id="g162"
           transform="translate(291.2559,385.4092)">
          <path
             d="m 0,0 c 0,-2.148 3.89,-3.89 3.89,-3.89 0,0 3.889,1.742 3.889,3.89 0,1.019 -1.43,1.594 -2.349,1.332 C 4.409,1.042 3.89,-0.15 3.89,-0.15 c 0,0 -0.961,1.274 -1.928,1.581 C 0.983,1.742 0,1.08 0,0"
             style="fill:#e1e1e1;fill-opacity:1;fill-rule:nonzero;stroke:none"
             id="path164" />
        </g>
        <g
           id="g166"
           transform="translate(205.7109,140.6777)">
          <path
             d="m 0,0 c 0.457,-2.89 2.549,-5.381 2.712,-8.302 0.127,-2.283 -0.946,-4.438 -1.472,-6.664 -0.525,-2.225 -0.275,-5 1.684,-6.18 1.357,-0.817 3.162,-0.565 4.511,0.266 1.349,0.831 2.321,2.151 3.156,3.497 3.055,4.922 4.751,10.679 4.847,16.472 C 15.48,1.547 15.191,4.144 13.746,6.132 9.25,12.316 -1.139,7.2 0,0"
             style="fill:#f5f5f5;fill-opacity:1;fill-rule:nonzero;stroke:none"
             id="path168" />
        </g>
        <g
           id="g170"
           transform="translate(202.042,148.3252)">
          <path
             d="M 0,0 C 0.414,-0.477 0.999,-0.784 1.61,-0.941 2.371,-1.139 3.271,-1.078 3.818,-0.513 4.337,0.023 4.395,0.854 4.319,1.597 4.228,2.508 3.971,3.426 3.412,4.152 2.854,4.878 1.957,5.383 1.044,5.309 0.131,5.233 -0.729,4.484 -0.775,3.569 -0.825,2.588 -0.66,0.76 0,0"
             style="fill:#f5f5f5;fill-opacity:1;fill-rule:nonzero;stroke:none"
             id="path172" />
        </g>
        <g
           id="g174"
           transform="translate(210.3125,154.3379)">
          <path
             d="m 0,0 c -0.501,0.68 -1.225,1 -1.945,0.854 -0.707,-0.145 -1.358,-0.801 -1.441,-1.543 -0.024,-0.22 -0.037,-0.472 -0.033,-0.729 0.006,-0.377 0.037,-0.786 0.127,-1.167 0.1,-0.419 0.274,-0.797 0.513,-1.033 0.34,-0.337 0.781,-0.548 1.247,-0.635 0.579,-0.108 1.248,-0.02 1.665,0.412 0.436,0.455 0.55,1.125 0.527,1.749 C 0.633,-1.354 0.441,-0.6 0,0"
             style="fill:#f5f5f5;fill-opacity:1;fill-rule:nonzero;stroke:none"
             id="path176" />
        </g>
        <g
           id="g178"
           transform="translate(214.9443,154.5918)">
          <path
             d="m 0,0 c -0.497,0.705 -1.135,0.89 -1.751,0.661 -0.59,-0.218 -1.119,-0.856 -1.239,-1.514 -0.039,-0.214 -0.065,-0.442 -0.073,-0.659 -0.014,-0.345 -0.008,-0.717 0.074,-1.065 0.088,-0.374 0.268,-0.709 0.512,-0.909 0.3,-0.245 0.661,-0.387 1.04,-0.419 0.47,-0.04 0.996,0.082 1.336,0.437 0.405,0.425 0.577,1.015 0.601,1.592 C 0.527,-1.224 0.381,-0.542 0,0"
             style="fill:#f5f5f5;fill-opacity:1;fill-rule:nonzero;stroke:none"
             id="path180" />
        </g>
        <g
           id="g182"
           transform="translate(219.0713,153.6289)">
          <path
             d="m 0,0 c -0.489,0.733 -1.046,0.783 -1.557,0.471 -0.472,-0.289 -0.885,-0.913 -1.037,-1.487 -0.054,-0.208 -0.094,-0.413 -0.114,-0.588 -0.035,-0.316 -0.052,-0.65 0.021,-0.964 0.077,-0.329 0.26,-0.626 0.514,-0.786 0.253,-0.16 0.539,-0.226 0.83,-0.203 0.363,0.029 0.745,0.185 1.009,0.463 0.372,0.395 0.601,0.905 0.675,1.435 C 0.419,-1.093 0.322,-0.482 0,0"
             style="fill:#f5f5f5;fill-opacity:1;fill-rule:nonzero;stroke:none"
             id="path184" />
        </g>
        <g
           id="g186"
           transform="translate(219.8838,149.583)">
          <path
             d="m 0,0 c -0.052,-0.239 -0.082,-0.489 -0.027,-0.728 0.054,-0.239 0.207,-0.465 0.433,-0.558 0.388,-0.157 0.815,0.117 1.1,0.424 0.286,0.307 0.525,0.671 0.632,1.078 C 2.244,0.623 2.209,1.078 1.984,1.435 1.074,2.884 0.152,0.715 0,0"
             style="fill:#f5f5f5;fill-opacity:1;fill-rule:nonzero;stroke:none"
             id="path188" />
        </g>
        <g
           id="g190"
           transform="translate(220.6924,73.8896)">
          <path
             d="m 0,0 c 0.671,2.365 1.059,4.949 0.172,7.242 -2.758,7.131 -14.112,4.854 -14.86,-2.398 z"
             style="fill:#f5f5f5;fill-opacity:1;fill-rule:nonzero;stroke:none"
             id="path192" />
        </g>
        <g
           id="g194"
           transform="translate(204.4219,87.0674)">
          <path
             d="M 0,0 C 0.277,-0.567 0.764,-1.015 1.314,-1.324 2,-1.709 2.885,-1.882 3.559,-1.477 4.198,-1.091 4.466,-0.304 4.585,0.434 4.729,1.338 4.717,2.292 4.363,3.137 4.011,3.981 3.273,4.7 2.372,4.862 1.471,5.024 0.447,4.521 0.167,3.648 -0.133,2.712 -0.442,0.904 0,0"
             style="fill:#f5f5f5;fill-opacity:1;fill-rule:nonzero;stroke:none"
             id="path196" />
        </g>
        <g
           id="g198"
           transform="translate(213.959,90.7549)">
          <path
             d="m 0,0 c -0.31,0.786 -0.927,1.281 -1.66,1.324 -0.721,0.042 -1.519,-0.426 -1.789,-1.121 -0.08,-0.206 -0.157,-0.446 -0.219,-0.695 -0.091,-0.366 -0.167,-0.77 -0.177,-1.16 -0.011,-0.432 0.061,-0.842 0.231,-1.131 0.241,-0.412 0.614,-0.73 1.041,-0.934 0.532,-0.254 1.202,-0.341 1.716,-0.029 0.539,0.328 0.819,0.946 0.958,1.555 C 0.265,-1.471 0.273,-0.692 0,0"
             style="fill:#f5f5f5;fill-opacity:1;fill-rule:nonzero;stroke:none"
             id="path200" />
        </g>
        <g
           id="g202"
           transform="translate(218.5,89.8115)">
          <path
             d="M 0,0 C -0.298,0.81 -0.868,1.151 -1.521,1.089 -2.147,1.029 -2.823,0.548 -3.108,-0.057 -3.2,-0.254 -3.284,-0.468 -3.349,-0.675 -3.45,-1.006 -3.54,-1.366 -3.55,-1.724 c -0.011,-0.383 0.077,-0.754 0.262,-1.01 0.226,-0.314 0.539,-0.543 0.896,-0.671 0.445,-0.159 0.985,-0.177 1.405,0.08 0.5,0.306 0.818,0.832 0.989,1.384 C 0.196,-1.318 0.229,-0.621 0,0"
             style="fill:#f5f5f5;fill-opacity:1;fill-rule:nonzero;stroke:none"
             id="path204" />
        </g>
        <g
           id="g206"
           transform="translate(222.2422,87.8213)">
          <path
             d="m 0,0 c -0.285,0.834 -0.81,1.025 -1.384,0.854 -0.531,-0.158 -1.09,-0.655 -1.384,-1.17 -0.106,-0.187 -0.197,-0.374 -0.261,-0.54 -0.115,-0.295 -0.217,-0.614 -0.227,-0.937 -0.011,-0.337 0.09,-0.671 0.295,-0.891 0.204,-0.219 0.463,-0.356 0.75,-0.409 0.357,-0.065 0.768,-0.012 1.094,0.189 0.461,0.286 0.813,0.719 1.02,1.213 C 0.125,-1.163 0.187,-0.549 0,0"
             style="fill:#f5f5f5;fill-opacity:1;fill-rule:nonzero;stroke:none"
             id="path208" />
        </g>
        <g
           id="g210"
           transform="translate(221.9883,83.7021)">
          <path
             d="m 0,0 c -0.11,-0.218 -0.204,-0.451 -0.213,-0.696 -0.008,-0.245 0.081,-0.503 0.276,-0.651 0.334,-0.252 0.817,-0.095 1.171,0.127 0.357,0.224 0.68,0.514 0.888,0.88 C 2.33,0.026 2.412,0.475 2.287,0.877 1.779,2.512 0.332,0.651 0,0"
             style="fill:#f5f5f5;fill-opacity:1;fill-rule:nonzero;stroke:none"
             id="path212" />
        </g>
        <g
           id="g214"
           transform="translate(181.2754,116.3369)">
          <path
             d="m 0,0 c 0.36,-2.903 -0.96,-5.877 -0.308,-8.728 0.511,-2.229 2.139,-4.003 3.26,-5.996 1.121,-1.993 1.65,-4.728 0.094,-6.404 -1.078,-1.161 -2.882,-1.419 -4.409,-0.994 -1.527,0.425 -2.825,1.424 -4.001,2.485 -4.299,3.884 -7.522,8.948 -9.22,14.486 -0.72,2.35 -1.161,4.926 -0.323,7.237 C -12.3,9.273 -0.9,7.234 0,0"
             style="fill:#f5f5f5;fill-opacity:1;fill-rule:nonzero;stroke:none"
             id="path216" />
        </g>
        <g
           id="g218"
           transform="translate(182.6826,124.7012)">
          <path
             d="m 0,0 c -0.266,-0.572 -0.742,-1.03 -1.286,-1.351 -0.677,-0.399 -1.559,-0.59 -2.24,-0.199 -0.648,0.372 -0.933,1.154 -1.067,1.888 -0.164,0.901 -0.171,1.855 0.164,2.707 0.336,0.852 1.058,1.586 1.955,1.767 0.899,0.18 1.932,-0.301 2.231,-1.167 C 0.076,2.715 0.424,0.913 0,0"
             style="fill:#f5f5f5;fill-opacity:1;fill-rule:nonzero;stroke:none"
             id="path220" />
        </g>
        <g
           id="g222"
           transform="translate(173.0703,128.1885)">
          <path
             d="M 0,0 C 0.293,0.792 0.9,1.3 1.633,1.358 2.353,1.416 3.159,0.965 3.444,0.275 3.529,0.07 3.611,-0.168 3.678,-0.416 3.776,-0.779 3.86,-1.182 3.879,-1.571 3.899,-2.003 3.836,-2.414 3.673,-2.707 3.439,-3.124 3.073,-3.449 2.65,-3.662 2.124,-3.927 1.456,-4.028 0.936,-3.728 0.391,-3.411 0.097,-2.799 -0.055,-2.193 -0.233,-1.477 -0.259,-0.698 0,0"
             style="fill:#f5f5f5;fill-opacity:1;fill-rule:nonzero;stroke:none"
             id="path224" />
        </g>
        <g
           id="g226"
           transform="translate(168.5498,127.1504)">
          <path
             d="M 0,0 C 0.281,0.815 0.844,1.169 1.499,1.12 2.126,1.074 2.812,0.606 3.108,0.008 3.206,-0.187 3.294,-0.399 3.362,-0.604 3.471,-0.934 3.568,-1.292 3.586,-1.648 3.604,-2.032 3.523,-2.405 3.345,-2.665 3.125,-2.983 2.817,-3.219 2.463,-3.354 2.021,-3.523 1.482,-3.552 1.057,-3.305 0.551,-3.008 0.222,-2.489 0.039,-1.941 -0.168,-1.322 -0.216,-0.626 0,0"
             style="fill:#f5f5f5;fill-opacity:1;fill-rule:nonzero;stroke:none"
             id="path228" />
        </g>
        <g
           id="g230"
           transform="translate(164.8506,125.082)">
          <path
             d="M 0,0 C 0.268,0.84 0.788,1.042 1.365,0.883 1.899,0.736 2.469,0.251 2.773,-0.258 2.884,-0.443 2.979,-0.629 3.046,-0.793 3.167,-1.086 3.275,-1.401 3.293,-1.725 3.311,-2.062 3.217,-2.397 3.017,-2.621 2.817,-2.846 2.561,-2.987 2.274,-3.046 1.919,-3.119 1.509,-3.075 1.178,-2.881 0.711,-2.604 0.35,-2.178 0.132,-1.688 -0.101,-1.166 -0.176,-0.553 0,0"
             style="fill:#f5f5f5;fill-opacity:1;fill-rule:nonzero;stroke:none"
             id="path232" />
        </g>
        <g
           id="g234"
           transform="translate(165.1904,120.9697)">
          <path
             d="m 0,0 c 0.115,-0.216 0.214,-0.448 0.228,-0.692 0.013,-0.245 -0.071,-0.505 -0.263,-0.657 -0.328,-0.258 -0.815,-0.113 -1.173,0.103 -0.361,0.217 -0.69,0.499 -0.906,0.861 -0.215,0.362 -0.307,0.809 -0.191,1.213 C -1.831,2.473 -0.345,0.644 0,0"
             style="fill:#f5f5f5;fill-opacity:1;fill-rule:nonzero;stroke:none"
             id="path236" />
        </g>
        <g
           id="g238"
           transform="translate(154.3467,373.5054)">
          <path
             d="m 0,0 c -3.007,-0.42 -5.112,-3.208 -4.692,-6.215 0.42,-3.007 3.208,-5.112 6.214,-4.693 3.007,0.42 5.114,3.208 4.694,6.215 C 5.796,-1.686 3.007,0.419 0,0 M 2.386,-17.093 C -4.031,-17.988 -9.981,-13.496 -10.877,-7.079 -11.773,-0.661 -7.28,5.29 -0.863,6.185 5.555,7.081 11.505,2.588 12.401,-3.83 13.297,-10.248 8.804,-16.197 2.386,-17.093"
             style="fill:#e1e1e1;fill-opacity:1;fill-rule:nonzero;stroke:none"
             id="path240" />
        </g>
        <g
           id="g242"
           transform="translate(156.2832,374.6641)">
          <path
             d="m 0,0 -4.418,-0.617 -3.966,28.414 4.418,0.617 z"
             style="fill:#e1e1e1;fill-opacity:1;fill-rule:nonzero;stroke:none"
             id="path244" />
        </g>
        <g
           id="g246"
           transform="translate(156.5791,402.3218)">
          <path
             d="M 0,0 -8.294,-1.158 -8.911,3.26 -0.617,4.418 Z"
             style="fill:#e1e1e1;fill-opacity:1;fill-rule:nonzero;stroke:none"
             id="path248" />
        </g>
        <g
           id="g250"
           transform="translate(157.3779,396.645)">
          <path
             d="M 0,0 -7.799,-1.088 -8.415,3.33 -0.616,4.418 Z"
             style="fill:#e1e1e1;fill-opacity:1;fill-rule:nonzero;stroke:none"
             id="path252" />
        </g>
        <g
           id="g254"
           transform="translate(158.5088,388.6387)">
          <path
             d="m 0,0 -6.808,-0.95 -0.616,4.418 6.808,0.95 z"
             style="fill:#e1e1e1;fill-opacity:1;fill-rule:nonzero;stroke:none"
             id="path256" />
        </g>
      </g>
    </g>
    <g
       id="g258">
      <g
         id="g260"
         clip-path="url(#clipPath264)">
        <g
           id="g266"
           transform="translate(153.6533,274.9438)">
          <path
             d="m 0,0 c 1.219,-13.925 -9.083,-25.214 -23.008,-25.214 -13.926,0 -26.202,11.289 -27.42,25.214 -1.218,13.925 9.082,25.214 23.008,25.214 C -13.494,25.214 -1.218,13.925 0,0"
             style="fill:#007cff;fill-opacity:1;fill-rule:nonzero;stroke:none"
             id="path268" />
        </g>
        <g
           id="g270">
          <g
             id="g272" />
          <g
             id="g284">
            <g
               clip-path="url(#clipPath276)"
               opacity="0.800003"
               id="g282">
              <g
                 transform="translate(153.6533,274.9438)"
                 id="g280">
                <path
                   d="m 0,0 c 1.219,-13.925 -9.083,-25.214 -23.008,-25.214 -13.926,0 -26.202,11.289 -27.42,25.214 -1.218,13.925 9.082,25.214 23.008,25.214 C -13.494,25.214 -1.218,13.925 0,0"
                   style="fill:#ffffff;fill-opacity:1;fill-rule:nonzero;stroke:none"
                   id="path278" />
              </g>
            </g>
          </g>
        </g>
        <g
           id="g286"
           transform="translate(116.6914,290.7603)">
          <path
             d="m 0,0 c -0.306,0 -0.607,0.14 -0.804,0.404 -0.329,0.444 -0.236,1.07 0.207,1.399 3.174,2.356 7.172,3.601 11.562,3.601 h 0.014 c 0.552,0 1,-0.448 1,-1 0,-0.552 -0.449,-1 -1,-1 0,0 -0.009,0 -0.014,0 C 7.007,3.404 3.422,2.295 0.595,0.197 0.416,0.064 0.207,0 0,0"
             style="fill:#007cff;fill-opacity:1;fill-rule:nonzero;stroke:none"
             id="path288" />
        </g>
        <g
           id="g290"
           transform="translate(121.4209,256.3569)">
          <path
             d="m 0,0 c -0.159,0 -0.32,0.038 -0.471,0.119 -6.199,3.319 -10.537,9.217 -11.9,16.182 -1.228,6.27 0.235,12.477 4.013,17.031 0.351,0.423 0.983,0.483 1.408,0.131 0.425,-0.353 0.483,-0.983 0.131,-1.408 -3.393,-4.09 -4.702,-9.691 -3.589,-15.369 C -9.161,10.312 -5.194,4.917 0.473,1.881 0.96,1.621 1.144,1.015 0.883,0.528 0.702,0.191 0.357,0 0,0"
             style="fill:#007cff;fill-opacity:1;fill-rule:nonzero;stroke:none"
             id="path292" />
        </g>
        <g
           id="g294"
           transform="translate(131.4297,253.7485)">
          <path
             d="m 0,0 c -2.157,0 -4.372,0.351 -6.588,1.065 -0.525,0.169 -0.814,0.732 -0.645,1.258 0.17,0.526 0.735,0.817 1.258,0.645 6.151,-1.98 12.294,-0.879 16.847,3.027 4.642,3.982 6.8,10.186 5.774,16.598 -0.088,0.545 0.284,1.058 0.829,1.145 0.542,0.091 1.057,-0.283 1.145,-0.829 C 19.758,15.805 17.348,8.915 12.174,4.477 8.733,1.525 4.494,0 0,0"
             style="fill:#007cff;fill-opacity:1;fill-rule:nonzero;stroke:none"
             id="path296" />
        </g>
        <g
           id="g298"
           transform="translate(148.25,278.8823)">
          <path
             d="m 0,0 c -0.423,0 -0.815,0.27 -0.952,0.694 -1.843,5.727 -6.171,10.548 -11.576,12.897 -0.507,0.22 -0.74,0.809 -0.519,1.315 0.219,0.507 0.806,0.74 1.316,0.519 C -5.807,12.851 -1.064,7.573 0.952,1.307 1.121,0.781 0.832,0.218 0.307,0.049 0.204,0.016 0.102,0 0,0"
             style="fill:#007cff;fill-opacity:1;fill-rule:nonzero;stroke:none"
             id="path300" />
        </g>
        <g
           id="g302"
           transform="translate(132.4883,293.5991)">
          <path
             d="m 0,0 c -0.076,0 -0.154,0.009 -0.231,0.027 -1.504,0.356 -3.048,0.537 -4.588,0.538 -0.552,0.001 -1,0.449 -0.999,1.001 10e-4,0.552 0.448,0.999 1,0.999 h 10e-4 C -3.123,2.564 -1.425,2.365 0.229,1.973 0.767,1.846 1.1,1.307 0.972,0.77 0.863,0.31 0.453,0 0,0"
             style="fill:#007cff;fill-opacity:1;fill-rule:nonzero;stroke:none"
             id="path304" />
        </g>
        <g
           id="g306"
           transform="translate(114.8506,269.7056)">
          <path
             d="m 0,0 c -0.407,0 -0.79,0.251 -0.938,0.655 -1.878,5.106 -1.24,10.493 1.752,14.781 2.867,4.107 7.431,6.463 12.523,6.463 h 0.003 c 0.553,0 1,-0.448 1,-1 0,-0.552 -0.448,-1 -1,-1 H 13.337 C 8.908,19.899 4.941,17.855 2.454,14.291 -0.158,10.548 -0.71,5.83 0.938,1.346 1.129,0.827 0.863,0.252 0.345,0.062 0.231,0.02 0.114,0 0,0"
             style="fill:#007cff;fill-opacity:1;fill-rule:nonzero;stroke:none"
             id="path308" />
        </g>
        <g
           id="g310"
           transform="translate(130.7129,258.2896)">
          <path
             d="m 0,0 h -0.01 c -5.805,0.059 -11.688,3.384 -14.987,8.471 -0.301,0.463 -0.169,1.082 0.295,1.383 0.463,0.301 1.082,0.168 1.383,-0.295 C -10.375,5.019 -5.144,2.052 0.01,2 0.562,1.994 1.006,1.542 1,0.99 0.994,0.441 0.548,0 0,0"
             style="fill:#007cff;fill-opacity:1;fill-rule:nonzero;stroke:none"
             id="path312" />
        </g>
        <g
           id="g314"
           transform="translate(134.4463,258.7227)">
          <path
             d="m 0,0 c -0.448,0 -0.856,0.304 -0.97,0.758 -0.133,0.536 0.194,1.079 0.73,1.212 8.111,2.02 10.211,9.11 9.545,14.568 -0.869,7.12 -6.494,14.334 -15.562,14.344 -0.553,0 -1,0.449 -0.999,1.001 0.001,0.552 0.448,0.999 1,0.999 h 0.001 C 3.975,32.871 10.314,24.773 11.29,16.78 12.298,8.527 7.961,1.952 0.242,0.03 0.161,0.009 0.08,0 0,0"
             style="fill:#007cff;fill-opacity:1;fill-rule:nonzero;stroke:none"
             id="path316" />
        </g>
        <g
           id="g318"
           transform="translate(124.1045,284.0811)">
          <path
             d="m 0,0 c -0.378,0 -0.739,0.215 -0.908,0.58 -0.233,0.501 -0.014,1.095 0.487,1.328 1.492,0.69 3.175,1.055 4.865,1.055 0.553,0 1,-0.447 1,-1 0,-0.552 -0.447,-1 -1,-1 C 3.042,0.963 1.65,0.662 0.419,0.092 0.283,0.03 0.141,0 0,0"
             style="fill:#007cff;fill-opacity:1;fill-rule:nonzero;stroke:none"
             id="path320" />
        </g>
        <g
           id="g322"
           transform="translate(130.5264,262.9482)">
          <path
             d="m 0,0 c -5.034,0 -9.677,3.069 -11.905,7.906 -2.074,4.501 -1.466,9.216 1.624,12.612 0.372,0.408 1.005,0.437 1.412,0.066 0.408,-0.371 0.438,-1.004 0.066,-1.412 -2.531,-2.783 -3.011,-6.681 -1.285,-10.429 1.947,-4.228 6.062,-6.875 10.407,-6.738 3.534,0.109 6.471,2.039 7.859,5.164 1.573,3.543 0.865,7.729 -1.848,10.923 -0.358,0.421 -0.307,1.052 0.114,1.409 0.422,0.356 1.053,0.307 1.41,-0.114 3.215,-3.785 4.04,-8.778 2.152,-13.03 C 8.299,2.513 4.7,0.139 0.382,0.006 0.254,0.002 0.127,0 0,0"
             style="fill:#007cff;fill-opacity:1;fill-rule:nonzero;stroke:none"
             id="path324" />
        </g>
        <g
           id="g326"
           transform="translate(134.7441,283.2017)">
          <path
             d="m 0,0 c -0.185,0 -0.37,0.051 -0.537,0.157 -1.727,1.102 -3.684,1.685 -5.658,1.686 -0.553,0 -1,0.448 -1,1 0,0.552 0.448,1 1,1 2.356,-10e-4 4.685,-0.692 6.734,-2 C 1.005,1.546 1.141,0.928 0.844,0.462 0.653,0.163 0.33,0 0,0"
             style="fill:#007cff;fill-opacity:1;fill-rule:nonzero;stroke:none"
             id="path328" />
        </g>
        <g
           id="g330"
           transform="translate(130.0283,267.4604)">
          <path
             d="m 0,0 c -2.308,0 -4.539,1.033 -6.113,2.904 -1.979,2.352 -2.436,5.474 -1.192,8.147 1.158,2.487 3.499,3.971 6.265,3.973 0.552,0 1,-0.447 1,-1 0,-0.552 -0.447,-1 -1,-1 C -3.007,13.023 -4.671,11.97 -5.491,10.208 -6.403,8.247 -6.055,5.942 -4.582,4.191 -3.077,2.402 -0.789,1.626 1.395,2.171 3.25,2.632 4.592,3.991 4.982,5.806 5.099,6.345 5.624,6.687 6.171,6.572 6.711,6.456 7.054,5.924 6.937,5.384 6.382,2.807 4.49,0.88 1.877,0.23 1.253,0.076 0.624,0 0,0"
             style="fill:#007cff;fill-opacity:1;fill-rule:nonzero;stroke:none"
             id="path332" />
        </g>
        <g
           id="g334"
           transform="translate(135.8174,275.3774)">
          <path
             d="m 0,0 c -0.426,0 -0.82,0.274 -0.954,0.702 -0.798,2.549 -3.269,4.402 -5.876,4.405 -0.553,0 -1,0.449 -0.999,1.001 10e-4,0.552 0.448,0.999 1,0.999 h 10e-4 C -3.37,7.103 -0.097,4.66 0.954,1.299 1.119,0.772 0.825,0.211 0.299,0.046 0.199,0.015 0.099,0 0,0"
             style="fill:#007cff;fill-opacity:1;fill-rule:nonzero;stroke:none"
             id="path336" />
        </g>
        <g
           id="g338"
           transform="translate(130.2666,271.6191)">
          <path
             d="M 0,0 C -0.539,0 -0.984,0.43 -0.999,0.973 -1.014,1.525 -0.578,1.985 -0.026,2 0.884,2.024 1.02,2.675 1.02,3.061 1.02,3.651 0.635,4.54 -0.425,4.568 -0.714,4.559 -1.002,4.437 -1.204,4.217 -1.408,3.994 -1.506,3.692 -1.484,3.344 -1.451,2.793 -1.87,2.319 -2.422,2.286 -2.972,2.248 -3.446,2.671 -3.48,3.223 c -0.054,0.889 0.23,1.721 0.801,2.344 0.569,0.621 1.369,0.976 2.253,1 C 1.831,6.508 3.02,4.717 3.02,3.061 3.02,1.306 1.789,0.048 0.028,0 0.019,0 0.01,0 0,0"
             style="fill:#007cff;fill-opacity:1;fill-rule:nonzero;stroke:none"
             id="path340" />
        </g>
        <g
           id="g342"
           transform="translate(156.0381,274.9473)">
          <path
             d="m 0,0 c 1.219,-13.93 -9.083,-25.22 -23.014,-25.22 -0.359,0 -0.72,0.01 -1.082,0.03 13.26,0.68 22.886,11.7 21.706,25.19 -1.179,13.48 -12.733,24.5 -26.113,25.18 0.358,0.02 0.718,0.03 1.077,0.03 C -13.495,25.21 -1.218,13.92 0,0"
             style="fill:#007cff;fill-opacity:1;fill-rule:nonzero;stroke:none"
             id="path344" />
        </g>
        <g
           id="g346">
          <g
             id="g348" />
          <g
             id="g360">
            <g
               clip-path="url(#clipPath352)"
               opacity="0.399994"
               id="g358">
              <g
                 transform="translate(156.0381,274.9473)"
                 id="g356">
                <path
                   d="m 0,0 c 1.219,-13.93 -9.083,-25.22 -23.014,-25.22 -0.359,0 -0.72,0.01 -1.082,0.03 13.26,0.68 22.886,11.7 21.706,25.19 -1.179,13.48 -12.733,24.5 -26.113,25.18 0.358,0.02 0.718,0.03 1.077,0.03 C -13.495,25.21 -1.218,13.92 0,0"
                   style="fill:#ffffff;fill-opacity:1;fill-rule:nonzero;stroke:none"
                   id="path354" />
              </g>
            </g>
          </g>
        </g>
      </g>
    </g>
    <g
       id="g362">
      <g
         id="g364"
         clip-path="url(#clipPath368)">
        <g
           id="g370"
           transform="translate(176.415,397.8584)">
          <path
             d="m 0,0 c 0.026,-0.3 0.072,-0.6 0.128,-0.89 0.369,-1.93 1.401,-3.67 2.815,-4.97 1.631,-1.5 3.783,-2.43 6.073,-2.43 h 84.49 c 4.279,0 7.516,3.24 7.592,7.4 0.005,0.29 -0.001,0.59 -0.028,0.89 -0.199,2.28 -1.311,4.36 -2.941,5.85 -1.632,1.5 -3.783,2.43 -6.073,2.43 H 7.565 C 2.985,8.28 -0.399,4.57 0,0"
             style="fill:#007cff;fill-opacity:1;fill-rule:nonzero;stroke:none"
             id="path372" />
        </g>
        <g
           id="g374">
          <g
             id="g376" />
          <g
             id="g388">
            <g
               clip-path="url(#clipPath380)"
               opacity="0.800003"
               id="g386">
              <g
                 transform="translate(176.415,397.8584)"
                 id="g384">
                <path
                   d="m 0,0 c 0.026,-0.3 0.072,-0.6 0.128,-0.89 0.369,-1.93 1.401,-3.67 2.815,-4.97 1.631,-1.5 3.783,-2.43 6.073,-2.43 h 84.49 c 4.279,0 7.516,3.24 7.592,7.4 0.005,0.29 -0.001,0.59 -0.028,0.89 -0.199,2.28 -1.311,4.36 -2.941,5.85 -1.632,1.5 -3.783,2.43 -6.073,2.43 H 7.565 C 2.985,8.28 -0.399,4.57 0,0"
                   style="fill:#ffffff;fill-opacity:1;fill-rule:nonzero;stroke:none"
                   id="path382" />
              </g>
            </g>
          </g>
        </g>
        <g
           id="g390"
           transform="translate(277.5098,396.9702)">
          <path
             d="M 0,0 C 0,-0.27 -0.02,-0.54 -0.06,-0.8 -0.319,1.36 -1.41,3.32 -2.97,4.74 -4.6,6.24 -6.75,7.17 -9.04,7.17 L -98.89,7.03 c 1.35,1.33 3.23,2.14 5.361,2.14 H -9.04 c 2.29,0 4.44,-0.93 6.07,-2.43 C -1.34,5.25 -0.22,3.17 -0.02,0.89 0,0.59 0.01,0.29 0,0"
             style="fill:#007cff;fill-opacity:1;fill-rule:nonzero;stroke:none"
             id="path392" />
        </g>
        <g
           id="g394">
          <g
             id="g396" />
          <g
             id="g408">
            <g
               clip-path="url(#clipPath400)"
               opacity="0.5"
               id="g406">
              <g
                 transform="translate(277.5098,396.9702)"
                 id="g404">
                <path
                   d="M 0,0 C 0,-0.27 -0.02,-0.54 -0.06,-0.8 -0.319,1.36 -1.41,3.32 -2.97,4.74 -4.6,6.24 -6.75,7.17 -9.04,7.17 L -98.89,7.03 c 1.35,1.33 3.23,2.14 5.361,2.14 H -9.04 c 2.29,0 4.44,-0.93 6.07,-2.43 C -1.34,5.25 -0.22,3.17 -0.02,0.89 0,0.59 0.01,0.29 0,0"
                   style="fill:#ffffff;fill-opacity:1;fill-rule:nonzero;stroke:none"
                   id="path402" />
              </g>
            </g>
          </g>
        </g>
        <g
           id="g410"
           transform="translate(262.9619,402.1431)">
          <path
             d="m 0,0 0.354,-4.042 3.762,1.403 0.895,-1.995 -3.847,-1.276 2.762,-3.391 -1.724,-1.277 -2.691,3.525 -2.04,-3.525 -1.893,1.277 2.132,3.391 -4.033,1.276 0.543,1.984 4.043,-1.353 L -2.087,0 Z"
             style="fill:#007cff;fill-opacity:1;fill-rule:nonzero;stroke:none"
             id="path412" />
        </g>
        <g
           id="g414"
           transform="translate(239.8545,402.1431)">
          <path
             d="m 0,0 0.354,-4.042 3.762,1.403 0.895,-1.995 -3.847,-1.276 2.762,-3.391 -1.724,-1.277 -2.691,3.525 -2.039,-3.525 -1.894,1.277 2.133,3.391 -4.034,1.276 0.544,1.984 4.043,-1.353 L -2.087,0 Z"
             style="fill:#007cff;fill-opacity:1;fill-rule:nonzero;stroke:none"
             id="path416" />
        </g>
        <g
           id="g418"
           transform="translate(216.7471,402.1431)">
          <path
             d="m 0,0 0.354,-4.042 3.763,1.403 0.894,-1.995 -3.846,-1.276 2.761,-3.391 -1.723,-1.277 -2.692,3.525 -2.039,-3.525 -1.893,1.277 2.132,3.391 -4.033,1.276 0.543,1.984 4.043,-1.353 L -2.087,0 Z"
             style="fill:#007cff;fill-opacity:1;fill-rule:nonzero;stroke:none"
             id="path420" />
        </g>
        <g
           id="g422"
           transform="translate(193.6396,402.1431)">
          <path
             d="m 0,0 0.354,-4.042 3.763,1.403 0.894,-1.995 -3.846,-1.276 2.762,-3.391 -1.724,-1.277 -2.692,3.525 -2.039,-3.525 -1.893,1.277 2.132,3.391 -4.033,1.276 0.543,1.984 4.043,-1.353 L -2.086,0 Z"
             style="fill:#007cff;fill-opacity:1;fill-rule:nonzero;stroke:none"
             id="path424" />
        </g>
        <path
           d="m 249.645,409.059 h -3.938 v 1 h 3.938 z"
           style="fill:#007cff;fill-opacity:1;fill-rule:nonzero;stroke:none"
           id="path426" />
        <path
           d="m 266.583,409.059 h -12.854 v 1 h 12.854 z"
           style="fill:#007cff;fill-opacity:1;fill-rule:nonzero;stroke:none"
           id="path428" />
      </g>
    </g>
    <g
       id="g430">
      <g
         id="g432"
         clip-path="url(#clipPath436)">
        <g
           id="g438">
          <g
             id="g440" />
          <g
             id="g452">
            <g
               clip-path="url(#clipPath444)"
               opacity="0.800003"
               id="g450">
              <g
                 transform="translate(397.791,372.7559)"
                 id="g448">
                <path
                   d="m 0,0 -4.092,-46.77 c -0.124,-1.41 -0.756,-2.69 -1.71,-3.65 -1.1,-1.15 -2.643,-1.87 -4.293,-1.87 h -32.469 c -1.201,0 -2.278,0.38 -3.12,1.04 -1.313,0.99 -2.08,2.63 -1.918,4.48 L -43.51,0 c 0.267,3.05 2.952,5.52 6.003,5.52 h 32.47 C -1.987,5.52 0.267,3.05 0,0"
                   style="fill:#007cff;fill-opacity:1;fill-rule:nonzero;stroke:none"
                   id="path446" />
              </g>
            </g>
          </g>
        </g>
        <g
           id="g454">
          <g
             id="g456" />
          <g
             id="g468">
            <g
               clip-path="url(#clipPath460)"
               opacity="0.800003"
               id="g466">
              <g
                 transform="translate(397.791,372.7559)"
                 id="g464">
                <path
                   d="m 0,0 -4.092,-46.77 c -0.124,-1.41 -0.756,-2.69 -1.71,-3.65 -1.1,-1.15 -2.643,-1.87 -4.293,-1.87 h -32.469 c -1.201,0 -2.278,0.38 -3.12,1.04 -1.313,0.99 -2.08,2.63 -1.918,4.48 L -43.51,0 c 0.267,3.05 2.952,5.52 6.003,5.52 h 32.47 C -1.987,5.52 0.267,3.05 0,0"
                   style="fill:#ffffff;fill-opacity:1;fill-rule:nonzero;stroke:none"
                   id="path462" />
              </g>
            </g>
          </g>
        </g>
        <g
           id="g470"
           transform="translate(357.2793,365.2236)">
          <path
             d="m 0,0 c -0.029,0 -0.059,0.001 -0.088,0.004 -0.551,0.048 -0.957,0.533 -0.909,1.083 l 0.374,4.277 c 0.045,0.516 0.477,0.913 0.996,0.913 h 4.515 c 0.552,0 1,-0.448 1,-1 0,-0.552 -0.448,-1 -1,-1 H 1.289 L 0.995,0.913 C 0.949,0.393 0.513,0 0,0"
             style="fill:#007cff;fill-opacity:1;fill-rule:nonzero;stroke:none"
             id="path472" />
        </g>
        <g
           id="g474"
           transform="translate(393.6387,365.2236)">
          <path
             d="m 0,0 c -0.029,0 -0.059,0.001 -0.088,0.004 -0.551,0.048 -0.957,0.533 -0.909,1.083 l 0.279,3.19 h -3.424 c -0.552,0 -1,0.448 -1,1 0,0.552 0.448,1 1,1 H 0.373 C 0.653,6.277 0.921,6.159 1.11,5.953 1.3,5.746 1.394,5.469 1.369,5.19 L 0.995,0.913 C 0.949,0.393 0.513,0 0,0"
             style="fill:#007cff;fill-opacity:1;fill-rule:nonzero;stroke:none"
             id="path476" />
        </g>
        <g
           id="g478"
           transform="translate(358.9697,332.9473)">
          <path
             d="m 0,0 h -4.516 c -0.28,0 -0.547,0.118 -0.737,0.325 -0.189,0.206 -0.283,0.483 -0.259,0.762 l 0.375,4.278 c 0.049,0.55 0.542,0.963 1.083,0.908 C -3.503,6.225 -3.097,5.74 -3.145,5.19 L -3.424,2 H 0 C 0.553,2 1,1.552 1,1 1,0.448 0.553,0 0,0"
             style="fill:#007cff;fill-opacity:1;fill-rule:nonzero;stroke:none"
             id="path480" />
        </g>
        <g
           id="g482"
           transform="translate(390.8135,332.9473)">
          <path
             d="m 0,0 h -4.515 c -0.552,0 -1,0.448 -1,1 0,0.552 0.448,1 1,1 h 3.599 l 0.294,3.364 C -0.573,5.915 -0.07,6.328 0.461,6.273 1.012,6.226 1.418,5.74 1.37,5.19 L 0.996,0.913 C 0.951,0.396 0.519,0 0,0"
             style="fill:#007cff;fill-opacity:1;fill-rule:nonzero;stroke:none"
             id="path484" />
        </g>
        <g
           id="g486"
           transform="translate(387.915,352.3721)">
          <path
             d="m 0,0 c -0.782,-8.94 -7.373,-16.188 -14.722,-16.188 -7.348,0 -12.671,7.248 -11.888,16.188 0.781,8.94 7.373,16.188 14.721,16.188 C -4.541,16.188 0.782,8.94 0,0"
             style="fill:#ffffff;fill-opacity:1;fill-rule:nonzero;stroke:none"
             id="path488" />
        </g>
        <g
           id="g490"
           transform="translate(378.5488,327.4722)">
          <path
             d="m 0,0 h -12.95 l 1.133,12.95 H 1.134 Z"
             style="fill:#ffffff;fill-opacity:1;fill-rule:nonzero;stroke:none"
             id="path492" />
        </g>
        <g
           id="g494"
           transform="translate(393.6992,325.9858)">
          <path
             d="M 0,0 C -0.124,-1.41 -0.756,-2.69 -1.71,-3.65 -2.811,-4.8 -4.354,-5.52 -6.003,-5.52 h -32.47 c -1.2,0 -2.277,0.38 -3.119,1.04 -1.313,0.99 -2.08,2.63 -1.918,4.48 0,0 14.923,4.72 16.763,4.72 h 11.529 z"
             style="fill:#ffffff;fill-opacity:1;fill-rule:nonzero;stroke:none"
             id="path496" />
        </g>
        <g
           id="g498"
           transform="translate(399.126,340.6558)">
          <path
             d="M 0,0 -0.996,0.082 0.52,18.454 1.516,18.372 Z"
             style="fill:#007cff;fill-opacity:1;fill-rule:nonzero;stroke:none"
             id="path500" />
        </g>
        <g
           id="g502"
           transform="translate(401.3984,363.8174)">
          <path
             d="M 0,0 -0.996,0.082 -0.698,3.691 0.298,3.609 Z"
             style="fill:#007cff;fill-opacity:1;fill-rule:nonzero;stroke:none"
             id="path504" />
        </g>
      </g>
    </g>
    <path
       d="m 361.94,254.93 h 3.938 v 1 h -3.938 z"
       style="fill:#007cff;fill-opacity:1;fill-rule:nonzero;stroke:none"
       id="path506" />
    <path
       d="m 369.963,254.93 h 12.855 v 1 h -12.855 z"
       style="fill:#007cff;fill-opacity:1;fill-rule:nonzero;stroke:none"
       id="path508" />
    <g
       id="g510">
      <g
         id="g512"
         clip-path="url(#clipPath516)">
        <g
           id="g518"
           transform="translate(406.3311,273.0029)">
          <path
             d="m 0,0 -2.493,-28.505 c -0.226,-2.569 -2.49,-4.652 -5.06,-4.652 -2.568,0 -4.468,2.083 -4.244,4.652 L -9.304,0 c 0.806,9.205 -6.028,16.7 -15.233,16.7 H -34.734 C -43.94,16.7 -52.085,9.205 -52.891,0 l -1.018,-11.64 h -9.304 L -62.194,0 c 1.255,14.338 13.94,26.003 28.273,26.003 h 10.198 C -9.391,26.003 1.255,14.338 0,0"
             style="fill:#007cff;fill-opacity:1;fill-rule:nonzero;stroke:none"
             id="path520" />
        </g>
        <g
           id="g522">
          <g
             id="g524" />
          <g
             id="g536">
            <g
               clip-path="url(#clipPath528)"
               opacity="0.5"
               id="g534">
              <g
                 transform="translate(406.3311,273.0029)"
                 id="g532">
                <path
                   d="m 0,0 -2.493,-28.505 c -0.226,-2.569 -2.49,-4.652 -5.06,-4.652 -2.568,0 -4.468,2.083 -4.244,4.652 L -9.304,0 c 0.806,9.205 -6.028,16.7 -15.233,16.7 H -34.734 C -43.94,16.7 -52.085,9.205 -52.891,0 l -1.018,-11.64 h -9.304 L -62.194,0 c 1.255,14.338 13.94,26.003 28.273,26.003 h 10.198 C -9.391,26.003 1.255,14.338 0,0"
                   style="fill:#ffffff;fill-opacity:1;fill-rule:nonzero;stroke:none"
                   id="path530" />
              </g>
            </g>
          </g>
        </g>
        <g
           id="g538"
           transform="translate(407.0039,245.542)">
          <path
             d="m 0,0 -4.858,-55.537 c -0.308,-3.515 -3.4,-6.358 -6.914,-6.358 H -67.31 c -3.509,0 -6.108,2.843 -5.8,6.358 L -68.252,0 c 0.198,2.269 1.567,4.264 3.454,5.386 1.03,0.614 2.219,0.971 3.46,0.971 h 55.537 c 1.204,0 2.296,-0.336 3.202,-0.91 C -0.851,4.331 0.202,2.311 0,0"
             style="fill:#007cff;fill-opacity:1;fill-rule:nonzero;stroke:none"
             id="path540" />
        </g>
        <g
           id="g542"
           transform="translate(349.248,221.2832)">
          <path
             d="M 0,0 14.428,-22.214 62.02,25.379 c 0.418,0.418 -0.159,1.069 -0.624,0.704 L 16.041,-9.467 7.477,4.343 Z"
             style="fill:#ffffff;fill-opacity:1;fill-rule:nonzero;stroke:none"
             id="path544" />
        </g>
      </g>
    </g>
    <g
       id="g546">
      <g
         id="g548"
         clip-path="url(#clipPath552)">
        <g
           id="g554"
           transform="translate(121.957,328.6948)">
          <path
             d="m 0,0 h -36.142 c -3.393,0 -6.385,2.751 -6.682,6.145 l -3.162,36.142 c -0.297,3.393 2.214,6.144 5.607,6.144 h 36.142 c 3.393,0 6.385,-2.751 6.682,-6.144 L 5.607,6.145 C 5.904,2.751 3.394,0 0,0"
             style="fill:#007cff;fill-opacity:1;fill-rule:nonzero;stroke:none"
             id="path556" />
        </g>
        <g
           id="g558">
          <g
             id="g560" />
          <g
             id="g572">
            <g
               clip-path="url(#clipPath564)"
               opacity="0.800003"
               id="g570">
              <g
                 transform="translate(121.957,328.6948)"
                 id="g568">
                <path
                   d="m 0,0 h -36.142 c -3.393,0 -6.385,2.751 -6.682,6.145 l -3.162,36.142 c -0.297,3.393 2.214,6.144 5.607,6.144 h 36.142 c 3.393,0 6.385,-2.751 6.682,-6.144 L 5.607,6.145 C 5.904,2.751 3.394,0 0,0"
                   style="fill:#ffffff;fill-opacity:1;fill-rule:nonzero;stroke:none"
                   id="path566" />
              </g>
            </g>
          </g>
        </g>
        <g
           id="g574"
           transform="translate(79.1514,349.27)">
          <path
             d="M 0,0 C 0,0 12.839,17.889 22.311,17.43 31.782,16.972 47.487,0.421 47.487,0.421 47.487,0.421 24.314,-11.744 0,0"
             style="fill:#ffffff;fill-opacity:1;fill-rule:nonzero;stroke:none"
             id="path576" />
        </g>
        <g
           id="g578"
           transform="translate(79.5576,348.9785)">
          <path
             d="m 0,0 -0.812,0.583 c 0.523,0.729 12.777,17.647 22.356,17.647 0.129,0 0.257,-0.003 0.385,-0.009 C 31.49,17.758 46.797,1.739 47.443,1.057 L 46.719,0.369 C 46.563,0.533 31.043,16.779 21.88,17.222 21.768,17.228 21.653,17.23 21.539,17.23 12.473,17.23 0.125,0.174 0,0"
             style="fill:#1a2e35;fill-opacity:1;fill-rule:nonzero;stroke:none"
             id="path580" />
        </g>
        <g
           id="g582"
           transform="translate(77.8164,348.6411)">
          <path
             d="m 0,0 c -1.937,0 -4.452,0.72 -5.343,3.461 -0.085,0.263 0.059,0.545 0.322,0.63 C -4.76,4.175 -4.477,4.032 -4.392,3.77 -3.243,0.232 1.052,1.081 1.233,1.119 1.498,1.171 1.769,1.001 1.824,0.73 1.881,0.46 1.707,0.195 1.437,0.139 1.034,0.056 0.54,0 0,0"
             style="fill:#1a2e35;fill-opacity:1;fill-rule:nonzero;stroke:none"
             id="path584" />
        </g>
        <g
           id="g586"
           transform="translate(85.4453,356.3208)">
          <path
             d="m 0,0 c -0.106,0 -0.214,0.034 -0.305,0.103 -0.15,0.116 -3.698,2.86 -4.603,5.646 -0.085,0.262 0.058,0.544 0.321,0.629 0.262,0.085 0.545,-0.059 0.63,-0.321 C -3.148,3.569 0.27,0.923 0.305,0.896 0.523,0.729 0.564,0.415 0.396,0.196 0.298,0.067 0.149,0 0,0"
             style="fill:#1a2e35;fill-opacity:1;fill-rule:nonzero;stroke:none"
             id="path588" />
        </g>
        <g
           id="g590"
           transform="translate(92.7949,363.1309)">
          <path
             d="m 0,0 h -0.011 c -0.276,0.006 -0.495,0.234 -0.489,0.511 0.014,0.641 -1.576,4.827 -2.175,6.403 -0.251,0.66 -0.429,1.133 -0.468,1.26 -0.08,0.264 0.07,0.543 0.333,0.623 0.27,0.08 0.544,-0.069 0.624,-0.333 C -2.149,8.344 -1.978,7.895 -1.74,7.269 -0.347,3.6 0.515,1.185 0.5,0.489 0.494,0.217 0.271,0 0,0"
             style="fill:#1a2e35;fill-opacity:1;fill-rule:nonzero;stroke:none"
             id="path592" />
        </g>
        <g
           id="g594"
           transform="translate(101.4609,366.2002)">
          <path
             d="M 0,0 C -0.256,0 -0.475,0.196 -0.497,0.457 L -1.201,8.51 c -0.025,0.275 0.18,0.518 0.454,0.542 0.282,0.034 0.518,-0.179 0.542,-0.455 L 0.499,0.543 C 0.523,0.269 0.319,0.026 0.045,0.002 0.029,0 0.015,0 0,0"
             style="fill:#1a2e35;fill-opacity:1;fill-rule:nonzero;stroke:none"
             id="path596" />
        </g>
        <g
           id="g598"
           transform="translate(128.1377,349.1855)">
          <path
             d="m 0,0 c -0.81,0 -1.407,0.115 -1.46,0.126 -0.27,0.054 -0.445,0.317 -0.392,0.588 0.055,0.271 0.313,0.45 0.588,0.392 C -1.239,1.103 1.178,0.639 2.679,1.694 3.315,2.143 3.69,2.792 3.823,3.678 3.864,3.952 4.122,4.135 4.392,4.098 4.664,4.057 4.853,3.803 4.812,3.529 4.639,2.374 4.113,1.48 3.25,0.874 2.241,0.165 0.969,0 0,0"
             style="fill:#1a2e35;fill-opacity:1;fill-rule:nonzero;stroke:none"
             id="path600" />
        </g>
        <g
           id="g602"
           transform="translate(119.1602,356.853)">
          <path
             d="M 0,0 C -0.138,0 -0.275,0.057 -0.374,0.168 -0.558,0.375 -0.538,0.691 -0.332,0.875 -0.302,0.9 2.625,3.521 2.994,5.977 3.035,6.251 3.292,6.435 3.563,6.397 3.836,6.356 4.023,6.102 3.982,5.829 3.561,3.011 0.463,0.242 0.331,0.125 0.236,0.042 0.118,0 0,0"
             style="fill:#1a2e35;fill-opacity:1;fill-rule:nonzero;stroke:none"
             id="path604" />
        </g>
        <g
           id="g606"
           transform="translate(110.708,362.6631)">
          <path
             d="M 0,0 C -0.028,0 -0.056,0.002 -0.084,0.007 -0.356,0.053 -0.54,0.311 -0.494,0.583 -0.483,0.648 0.604,7.078 0.801,8.393 0.842,8.667 1.1,8.852 1.369,8.813 1.643,8.772 1.83,8.518 1.789,8.245 1.591,6.92 0.503,0.481 0.492,0.417 0.451,0.173 0.239,0 0,0"
             style="fill:#1a2e35;fill-opacity:1;fill-rule:nonzero;stroke:none"
             id="path608" />
        </g>
        <g
           id="g610"
           transform="translate(113.7822,355.3716)">
          <path
             d="m 0,0 c 0.547,-6.257 -4.081,-11.329 -10.338,-11.329 -6.257,0 -11.772,5.072 -12.32,11.329 -0.547,6.256 4.081,11.329 10.338,11.329 C -6.063,11.329 -0.548,6.256 0,0"
             style="fill:#007cff;fill-opacity:1;fill-rule:nonzero;stroke:none"
             id="path612" />
        </g>
        <g
           id="g614">
          <g
             id="g616" />
          <g
             id="g628">
            <g
               clip-path="url(#clipPath620)"
               opacity="0.300003"
               id="g626">
              <g
                 transform="translate(107.1357,355.3716)"
                 id="g624">
                <path
                   d="m 0,0 c 0.019,0.25 0.017,0.5 -0.007,0.76 -0.232,2.66 -2.58,4.81 -5.24,4.81 -2.65,0 -4.622,-2.15 -4.39,-4.81 C -9.613,0.5 -9.572,0.25 -9.5,0 h -6.51 c -0.548,6.26 4.078,11.33 10.339,11.33 C 0.579,11.33 6.103,6.26 6.65,0 Z"
                   style="fill:#000000;fill-opacity:1;fill-rule:nonzero;stroke:none"
                   id="path622" />
              </g>
            </g>
          </g>
        </g>
        <g
           id="g630">
          <g
             id="g632" />
          <g
             id="g644">
            <g
               clip-path="url(#clipPath636)"
               opacity="0.699997"
               id="g642">
              <g
                 transform="translate(107.1289,356.1318)"
                 id="g640">
                <path
                   d="m 0,0 c 0.023,-0.26 0.025,-0.51 0.007,-0.76 -0.169,-2.3 -2.006,-4.05 -4.405,-4.05 -2.391,0 -4.534,1.75 -5.095,4.05 -0.072,0.25 -0.113,0.5 -0.137,0.76 -0.232,2.66 1.739,4.81 4.39,4.81 C -2.58,4.81 -0.232,2.66 0,0"
                   style="fill:#000000;fill-opacity:1;fill-rule:nonzero;stroke:none"
                   id="path638" />
              </g>
            </g>
          </g>
        </g>
        <g
           id="g646">
          <g
             id="g648" />
          <g
             id="g660">
            <g
               clip-path="url(#clipPath652)"
               opacity="0.699997"
               id="g658">
              <g
                 transform="translate(109.7432,360.8525)"
                 id="g656">
                <path
                   d="m 0,0 c 0.189,-2.166 -1.413,-3.921 -3.578,-3.921 -2.166,0 -4.075,1.755 -4.265,3.921 -0.189,2.166 1.412,3.921 3.578,3.921 C -2.099,3.921 -0.19,2.166 0,0"
                   style="fill:#ffffff;fill-opacity:1;fill-rule:nonzero;stroke:none"
                   id="path654" />
              </g>
            </g>
          </g>
        </g>
        <path
           d="m 94.257,380.616 h -3.938 v 1 h 3.938 z"
           style="fill:#007cff;fill-opacity:1;fill-rule:nonzero;stroke:none"
           id="path662" />
        <path
           d="M 111.195,380.616 H 98.341 v 1 h 12.854 z"
           style="fill:#007cff;fill-opacity:1;fill-rule:nonzero;stroke:none"
           id="path664" />
      </g>
    </g>
    <g
       id="g666">
      <g
         id="g668"
         clip-path="url(#clipPath672)">
        <g
           id="g674"
           transform="translate(275.9766,308.3506)">
          <path
             d="m 0,0 0.346,-0.412 0.46,-0.527 c 0.33,-0.351 0.648,-0.72 1.008,-1.062 0.689,-0.722 1.44,-1.417 2.199,-2.134 1.52,-1.4 3.114,-2.718 4.774,-3.949 1.69,-1.252 3.464,-2.409 5.25,-3.546 0.97,-0.538 1.817,-1.11 2.759,-1.626 l 2.173,-1.201 c 0.314,-0.14 0.669,-0.161 0.998,-0.059 0.696,0.208 4.72,4.189 6,5.663 2.835,3.254 7.14,7.528 9.455,11.171 l 2.641,-3.571 c -1.636,-4.459 -3.809,-8.704 -6.469,-12.639 -1.434,-2.124 -3.149,-4.045 -5.097,-5.709 -1.174,-0.989 -2.499,-1.783 -3.926,-2.352 -1.802,-0.722 -3.784,-0.871 -5.675,-0.425 -0.49,0.118 -0.97,0.277 -1.434,0.476 l -0.899,0.393 -1.619,0.737 c -1.092,0.486 -2.141,1.059 -3.201,1.592 -2.12,1.13 -4.177,2.376 -6.16,3.731 -2,1.373 -3.919,2.862 -5.747,4.457 -0.952,0.828 -1.804,1.67 -2.672,2.583 -0.435,0.447 -0.867,0.923 -1.289,1.409 l -0.626,0.758 c -0.224,0.284 -0.392,0.494 -0.707,0.924 z"
             style="fill:#ffb670;fill-opacity:1;fill-rule:nonzero;stroke:none"
             id="path676" />
        </g>
        <g
           id="g678"
           transform="translate(311.0371,310.1182)">
          <path
             d="M 0,0 4.643,9.919 9.071,1.984 c 0,0 -2.908,-5.011 -6.069,-5.005 z"
             style="fill:#ffb670;fill-opacity:1;fill-rule:nonzero;stroke:none"
             id="path680" />
        </g>
        <g
           id="g682"
           transform="translate(320.9023,324.1562)">
          <path
             d="m 0,0 4.683,-6.018 -5.476,-6.026 -4.43,7.925 z"
             style="fill:#ffb670;fill-opacity:1;fill-rule:nonzero;stroke:none"
             id="path684" />
        </g>
        <g
           id="g686"
           transform="translate(319.2734,309.3706)">
          <path
             d="m 0,0 h 7.365 c 0.433,0 0.793,0.33 0.83,0.76 L 9.741,18.429 C 9.784,18.916 9.4,19.334 8.911,19.334 H 1.546 c -0.433,0 -0.793,-0.33 -0.83,-0.76 L -0.83,0.905 C -0.873,0.418 -0.489,0 0,0"
             style="fill:#007cff;fill-opacity:1;fill-rule:nonzero;stroke:none"
             id="path688" />
        </g>
        <g
           id="g690">
          <g
             id="g692" />
          <g
             id="g704">
            <g
               clip-path="url(#clipPath696)"
               opacity="0.300003"
               id="g702">
              <g
                 transform="translate(319.3467,311.1421)"
                 id="g700">
                <path
                   d="M 0,0 H 7.383 L 8.764,15.792 H 1.382 Z"
                   style="fill:#ffffff;fill-opacity:1;fill-rule:nonzero;stroke:none"
                   id="path698" />
              </g>
            </g>
          </g>
        </g>
        <g
           id="g706"
           transform="translate(318.8721,313.3774)">
          <path
             d="m 0,0 v 0 l 1.312,0.674 c 0.664,0.34 1.277,0.771 1.824,1.278 L 3.378,2.827 C 3.091,3.306 2.521,3.535 1.983,3.389 L 0.894,3.093 -4.51,2.681 -4.645,0.405 -3.066,-2.042 -2.519,-2.063 C -1.278,-2.111 -0.197,-1.226 0,0"
             style="fill:#ffb670;fill-opacity:1;fill-rule:nonzero;stroke:none"
             id="path708" />
        </g>
        <g
           id="g710"
           transform="translate(266.5645,318.0444)">
          <path
             d="m 0,0 c 3.747,0.68 30.198,-22.256 30.198,-22.256 l -7.842,-11.499 c 0,0 -28.924,20.139 -28.035,25.005 C -4.758,-3.686 -5.468,-0.998 0,0"
             style="fill:#1a2e35;fill-opacity:1;fill-rule:nonzero;stroke:none"
             id="path712" />
        </g>
        <g
           id="g714">
          <g
             id="g716" />
          <g
             id="g728">
            <g
               clip-path="url(#clipPath720)"
               opacity="0.199997"
               id="g726">
              <g
                 transform="translate(269.8984,310.6689)"
                 id="g724">
                <path
                   d="M 0,0 -0.288,-12.039 C 2.72,-14.371 13.557,-22.681 13.557,-22.681 Z"
                   style="fill:#000000;fill-opacity:1;fill-rule:nonzero;stroke:none"
                   id="path722" />
              </g>
            </g>
          </g>
        </g>
        <g
           id="g730"
           transform="translate(248.9297,79.6934)">
          <path
             d="M 0,0 8.874,-0.876 11.686,19.693 2.812,20.57 Z"
             style="fill:#ffb670;fill-opacity:1;fill-rule:nonzero;stroke:none"
             id="path732" />
        </g>
        <g
           id="g734"
           transform="translate(161.6016,200.3945)">
          <path
             d="m 0,0 -2.274,-8.641 19.194,-8.272 3.976,8.766 z"
             style="fill:#ffb670;fill-opacity:1;fill-rule:nonzero;stroke:none"
             id="path736" />
        </g>
        <g
           id="g738"
           transform="translate(265.7637,78.8301)">
          <path
             d="m 0,0 c 0.136,0.006 0.271,-0.024 0.393,-0.088 0.085,-0.047 0.138,-0.136 0.14,-0.233 0.025,-0.254 -0.074,-0.504 -0.264,-0.674 -0.554,-0.468 -2.029,-0.505 -4,-0.12 1.18,0.585 2.452,0.965 3.759,1.122 z m -1.614,-1.794 c 0.762,-0.092 1.534,0.079 2.187,0.483 0.295,0.252 0.447,0.633 0.406,1.019 -0.004,0.237 -0.133,0.456 -0.338,0.575 -1.078,0.639 -4.7,-1.078 -5.105,-1.272 -0.079,-0.042 -0.126,-0.126 -0.121,-0.215 0.013,-0.088 0.08,-0.158 0.167,-0.175 0.92,-0.224 1.858,-0.362 2.804,-0.415"
             style="fill:#007cff;fill-opacity:1;fill-rule:nonzero;stroke:none"
             id="path740" />
        </g>
        <g
           id="g742"
           transform="translate(263.5967,80.9902)">
          <path
             d="m 0,0 0.126,0.031 c 0.386,-0.058 0.402,-0.209 0.405,-0.26 0.092,-0.616 -1.386,-2.086 -2.495,-2.682 0.106,1.015 0.532,1.969 1.217,2.724 0.223,0.158 0.496,0.226 0.767,0.192 z m -2.205,-3.559 0.078,0.02 C -1.043,-3.094 1.12,-1.226 0.979,-0.21 0.922,0.023 0.794,0.331 0.207,0.412 -0.216,0.486 -0.649,0.379 -0.987,0.114 c -1.148,-0.893 -1.424,-3.302 -1.441,-3.398 -0.016,-0.072 0.002,-0.149 0.051,-0.204 0.043,-0.049 0.106,-0.075 0.172,-0.071"
             style="fill:#007cff;fill-opacity:1;fill-rule:nonzero;stroke:none"
             id="path744" />
        </g>
        <g
           id="g746"
           transform="translate(257.3643,82.3965)">
          <path
             d="m 0,0 -8.037,-0.333 c -0.359,-0.004 -0.657,-0.28 -0.69,-0.638 l -1.918,-11.161 c -0.044,-0.8 0.568,-1.484 1.367,-1.529 0.055,-0.003 0.111,-0.003 0.167,10e-4 3.487,0.18 5.168,0.439 9.588,0.59 2.709,0.091 11.043,-0.891 14.699,-0.048 3.656,0.842 3.011,4.508 1.413,4.484 C 11.447,-8.733 5.518,-5.385 2.543,-1.467 2.101,-1.132 0.554,0.034 0,0"
             style="fill:#1a2e35;fill-opacity:1;fill-rule:nonzero;stroke:none"
             id="path748" />
        </g>
        <g
           id="g750"
           transform="translate(163.4062,190.6162)">
          <path
             d="M 0,0 4.079,6.933 C 4.271,7.236 4.201,7.637 3.917,7.857 l -8.335,7.665 c -0.647,0.472 -1.555,0.33 -2.026,-0.318 -0.033,-0.045 -0.063,-0.092 -0.09,-0.14 -1.74,-3.028 -2.434,-4.58 -4.705,-8.376 -1.393,-2.324 -6.739,-8.793 -8.014,-12.322 -1.276,-3.528 2.154,-4.974 3.001,-3.62 2.706,4.374 8.735,7.539 13.641,7.913 0.52,0.19 2.339,0.858 2.611,1.341"
             style="fill:#1a2e35;fill-opacity:1;fill-rule:nonzero;stroke:none"
             id="path752" />
        </g>
        <g
           id="g754">
          <g
             id="g756" />
          <g
             id="g768">
            <g
               clip-path="url(#clipPath760)"
               opacity="0.199997"
               id="g766">
              <g
                 transform="translate(260.6152,99.3867)"
                 id="g764">
                <path
                   d="m 0,0 -1.45,-10.603 -8.874,0.867 1.439,10.603 z"
                   style="fill:#000000;fill-opacity:1;fill-rule:nonzero;stroke:none"
                   id="path762" />
              </g>
            </g>
          </g>
        </g>
        <g
           id="g770">
          <g
             id="g772" />
          <g
             id="g784">
            <g
               clip-path="url(#clipPath776)"
               opacity="0.199997"
               id="g782">
              <g
                 transform="translate(188.3945,190.1133)"
                 id="g780">
                <path
                   d="m 0,0 -4.099,-9.253 -12.352,5.456 3.151,8.818 z"
                   style="fill:#000000;fill-opacity:1;fill-rule:nonzero;stroke:none"
                   id="path778" />
              </g>
            </g>
          </g>
        </g>
        <g
           id="g786"
           transform="translate(272.2266,307.4468)">
          <path
             d="m 0,0 c 5.071,-8.615 -1.128,-15.892 -6.302,-41.651 l -33.426,-0.09 c 0.542,13.883 0.486,25.106 -5.44,52.414 -0.55,2.486 1.021,4.947 3.507,5.495 0.322,0.072 0.651,0.108 0.982,0.109 2.765,-0.003 6.235,-0.099 9.76,-0.458 5.568,-0.452 11.099,-1.288 16.551,-2.503 4.642,-1.116 5.769,-1.733 8.706,-2.718 C -3.948,10.012 -1.876,5.335 0,0"
             style="fill:#1a2e35;fill-opacity:1;fill-rule:nonzero;stroke:none"
             id="path788" />
        </g>
        <g
           id="g790"
           transform="translate(267.1611,264.0566)">
          <path
             d="m 0,0 c 0,0 18.769,-54.271 18.314,-80.365 -0.256,-14.95 -1.382,-42.807 -5.893,-62.402 -3.682,-15.987 -18.678,-26.198 -18.678,-26.198 l -12.029,0.712 c 0,0 -6.49,24.399 -5.361,34.109 2.246,19.326 8.914,33.85 8.111,51.597 -1.284,29.065 -9.881,83.012 -9.881,83.012 z"
             style="fill:#007cff;fill-opacity:1;fill-rule:nonzero;stroke:none"
             id="path792" />
        </g>
        <g
           id="g794"
           transform="translate(246.4873,92.6729)">
          <path
             d="m 0,0 16.947,-1.004 1.549,5.095 -18.94,1.751 z"
             style="fill:#1a2e35;fill-opacity:1;fill-rule:nonzero;stroke:none"
             id="path796" />
        </g>
        <g
           id="g798">
          <g
             id="g800" />
          <g
             id="g812">
            <g
               clip-path="url(#clipPath804)"
               opacity="0.199997"
               id="g810">
              <g
                 transform="translate(248.6328,154.4199)"
                 id="g808">
                <path
                   d="m 0,0 c 0.021,0.024 0.037,0.101 0.094,0.095 10.65,-1.042 18.022,14.327 16.257,35.316 l -5.655,53.496 z"
                   style="fill:#000000;fill-opacity:1;fill-rule:nonzero;stroke:none"
                   id="path806" />
              </g>
            </g>
          </g>
        </g>
        <g
           id="g814"
           transform="translate(258.7432,264.5127)">
          <path
             d="m 0,0 c 0,0 14.915,-95.432 -16.106,-106.174 -16.367,-6.201 -30.14,0.523 -46.447,7.74 -9.427,4.173 -21.208,15.461 -21.208,15.461 l 4.529,12.33 c 0,0 10.706,3.477 24.966,1.264 15.904,-2.468 16.571,-6.966 22.223,-3.579 11.877,29.369 -8.562,52.578 5.329,73.005 z"
             style="fill:#007cff;fill-opacity:1;fill-rule:nonzero;stroke:none"
             id="path816" />
        </g>
        <g
           id="g818"
           transform="translate(180.3955,196.207)">
          <path
             d="M 0,0 -6.053,-15.985 -1.592,-19.396 5.6,-0.37 Z"
             style="fill:#1a2e35;fill-opacity:1;fill-rule:nonzero;stroke:none"
             id="path820" />
        </g>
        <g
           id="g822"
           transform="translate(177.8994,282.4429)">
          <path
             d="m 0,0 c -1.514,-2.234 -9.17,-0.723 -9.17,-0.723 l -1.625,9.49 9.402,-3.769 z"
             style="fill:#ffb670;fill-opacity:1;fill-rule:nonzero;stroke:none"
             id="path824" />
        </g>
        <g
           id="g826"
           transform="translate(168.9854,291.7046)">
          <path
             d="m 0,0 1.469,-9.861 -5.656,-0.847 c -0.627,-0.053 -1.197,0.366 -1.334,0.979 l -2.16,7.063 c -0.075,0.34 0.132,0.68 0.469,0.769 z"
             style="fill:#ffb670;fill-opacity:1;fill-rule:nonzero;stroke:none"
             id="path828" />
        </g>
        <g
           id="g830"
           transform="translate(166.4658,287.228)">
          <path
             d="M 0,0 3.228,-0.571 6.27,1.724 5.093,2.564 C 4.295,3.134 3.734,3.975 3.519,4.931 3.286,5.96 3.132,7.07 3.106,7.981 L 3.097,8.323 C 3.017,8.942 2.535,9.433 1.918,9.524 L 1.118,8.931 C 0.612,7.839 0.974,6.576 0.91,5.725 L 0.783,4.07 -0.509,3.511 Z"
             style="fill:#ffb670;fill-opacity:1;fill-rule:nonzero;stroke:none"
             id="path832" />
        </g>
        <g
           id="g834"
           transform="translate(228.6729,319.999)">
          <path
             d="m 0,0 -18.919,-26.029 -34.771,-6.829 v -5.703 c 0,0 32.661,-2.422 39.987,1.855 7.327,4.278 19.654,30.165 19.654,30.165 z"
             style="fill:#ffb670;fill-opacity:1;fill-rule:nonzero;stroke:none"
             id="path836" />
        </g>
        <g
           id="g838"
           transform="translate(228.4502,370.0093)">
          <path
             d="m 0,0 c -7.937,2.665 -17.148,-2.265 -20.783,-9.807 -3.635,-7.541 -2.358,-16.791 1.729,-24.097 1.234,-2.203 2.707,-4.281 3.71,-6.597 1.003,-2.318 1.505,-4.981 0.69,-7.371 -0.815,-2.389 -1.657,-3.921 -4.618,-3.535 0,0 -0.037,1.639 1.129,1.441 0,0 -2.394,-1.332 -3.335,-0.46 1.083,-1.685 3.991,-1.069 4.924,0.704 1.398,2.654 -1.171,6.242 -4.17,6.209 -2.999,-0.034 -5.436,-3.062 -5.339,-6.059 0.096,-2.998 2.3,-5.665 5.038,-6.891 -1.621,-0.32 -3.403,0.632 -4.037,2.158 1.358,-3.562 5.802,-5.136 9.55,-4.438 3.747,0.698 6.923,3.107 9.859,5.538 3.96,3.278 8.091,7.421 7.967,12.56 -0.092,3.828 -2.552,7.119 -4.62,10.342 -2.067,3.222 -3.881,7.17 -2.567,10.766 1.113,3.05 4.129,4.89 6.795,6.743 1.919,1.334 5.817,4.306 5.357,7.111 C 6.849,-3.054 2.247,-0.754 0,0"
             style="fill:#1a2e35;fill-opacity:1;fill-rule:nonzero;stroke:none"
             id="path840" />
        </g>
        <g
           id="g842"
           transform="translate(210.5605,280.9922)">
          <path
             d="m 0,0 -5.238,13.868 1.201,-0.099 c 1.982,-0.165 3.875,0.839 4.847,2.575 3.982,7.12 14.331,25.196 17.242,26.094 4.15,1.23 8.42,-2.09 10.03,-6.99 C 29.266,31.835 17.104,16.361 11.458,7.558 6.459,-0.237 0,0 0,0"
             style="fill:#1a2e35;fill-opacity:1;fill-rule:nonzero;stroke:none"
             id="path844" />
        </g>
        <g
           id="g846"
           transform="translate(160.9873,189.0742)">
          <path
             d="m 0,0 c 0.185,-1.283 0.262,-3.021 -0.203,-3.424 -0.09,-0.075 -0.214,-0.095 -0.323,-0.051 -0.273,0.052 -0.499,0.24 -0.602,0.496 -0.179,0.542 0.197,1.642 1.126,2.95 z m -1.541,-3.014 c 0,0 -0.004,-0.07 -0.007,-0.11 0.147,-0.393 0.486,-0.682 0.897,-0.764 0.248,-0.08 0.52,-0.019 0.711,0.159 0.846,0.76 0.306,3.988 0.255,4.312 C 0.304,0.668 0.239,0.736 0.154,0.753 0.074,0.769 -0.009,0.739 -0.061,0.675 -0.729,-0.287 -1.812,-1.996 -1.541,-3.014"
             style="fill:#007cff;fill-opacity:1;fill-rule:nonzero;stroke:none"
             id="path848" />
        </g>
        <g
           id="g850"
           transform="translate(163.6855,187.2822)">
          <path
             d="M 0,0 C 0.049,-0.18 0.019,-0.37 -0.081,-0.526 -0.215,-0.759 -0.345,-0.761 -0.444,-0.745 -1.058,-0.619 -1.99,0.889 -2.289,1.938 -1.521,1.553 -0.271,0.817 -0.026,0.062 -0.022,0.039 -0.014,0.018 0,0 m -2.719,1.954 c 0.267,-1.078 1.28,-2.921 2.179,-3.135 0.34,-0.066 0.682,0.108 0.826,0.422 C 0.444,-0.47 0.465,-0.126 0.342,0.18 -0.065,1.416 -2.43,2.438 -2.527,2.483 -2.589,2.527 -2.67,2.531 -2.736,2.496 -2.793,2.447 -2.823,2.375 -2.818,2.301 -2.792,2.183 -2.759,2.067 -2.719,1.954"
             style="fill:#007cff;fill-opacity:1;fill-rule:nonzero;stroke:none"
             id="path852" />
        </g>
        <g
           id="g854"
           transform="translate(232.375,267.4033)">
          <path
             d="m 0,0 -0.924,-3.251 c -0.125,-0.253 0.17,-0.511 0.592,-0.506 l 34.496,0.047 c 0.329,-0.02 0.601,0.164 0.622,0.363 l 0.323,3.257 c 0.013,0.219 -0.265,0.416 -0.627,0.407 L 0.588,0.276 C 0.356,0.295 0.133,0.19 0,0"
             style="fill:#007cff;fill-opacity:1;fill-rule:nonzero;stroke:none"
             id="path856" />
        </g>
        <g
           id="g858">
          <g
             id="g860" />
          <g
             id="g872">
            <g
               clip-path="url(#clipPath864)"
               opacity="0.5"
               id="g870">
              <g
                 transform="translate(232.375,267.4033)"
                 id="g868">
                <path
                   d="m 0,0 -0.924,-3.251 c -0.125,-0.253 0.17,-0.511 0.592,-0.506 l 34.496,0.047 c 0.329,-0.02 0.601,0.164 0.622,0.363 l 0.323,3.257 c 0.013,0.219 -0.265,0.416 -0.627,0.407 L 0.588,0.276 C 0.356,0.295 0.133,0.19 0,0"
                   style="fill:#ffffff;fill-opacity:1;fill-rule:nonzero;stroke:none"
                   id="path866" />
              </g>
            </g>
          </g>
        </g>
        <g
           id="g874"
           transform="translate(238.9609,263.3452)">
          <path
             d="M 0,0 -1.002,-0.001 C -1.191,0.01 -1.347,0.1 -1.329,0.219 l 0.451,4.231 c 0.007,0.119 0.183,0.219 0.383,0.217 L 0.508,4.678 C 0.697,4.667 0.853,4.577 0.835,4.448 L 0.384,0.228 C 0.367,0.108 0.19,-0.001 0,0"
             style="fill:#007cff;fill-opacity:1;fill-rule:nonzero;stroke:none"
             id="path876" />
        </g>
        <g
           id="g878"
           transform="translate(263.8662,263.3496)">
          <path
             d="m 0,0 h -1.001 c -0.19,0.01 -0.345,0.1 -0.328,0.219 l 0.45,4.221 c 0.008,0.13 0.185,0.229 0.374,0.228 L 0.497,4.669 C 0.687,4.658 0.842,4.568 0.825,4.449 L 0.374,0.229 C 0.367,0.099 0.2,-0.002 0,0"
             style="fill:#007cff;fill-opacity:1;fill-rule:nonzero;stroke:none"
             id="path880" />
        </g>
        <g
           id="g882"
           transform="translate(252.4609,263.3721)">
          <path
             d="m 0,0 h -1.002 c -0.189,0.011 -0.345,0.1 -0.327,0.219 l 0.45,4.221 c 0.008,0.13 0.184,0.229 0.374,0.228 L 0.497,4.669 C 0.687,4.658 0.842,4.568 0.824,4.449 L 0.374,0.229 C 0.366,0.099 0.2,-0.002 0,0"
             style="fill:#007cff;fill-opacity:1;fill-rule:nonzero;stroke:none"
             id="path884" />
        </g>
        <g
           id="g886"
           transform="translate(242.8662,341.4658)">
          <path
             d="m 0,0 c 1.061,-5.442 2.101,-15.281 -1.592,-18.248 0,0 1.473,-5.586 11.363,-7.074 10.92,-1.649 5.188,4.572 5.188,4.572 -5.94,2.354 -5.796,6.654 -4.771,10.61 z"
             style="fill:#ffb670;fill-opacity:1;fill-rule:nonzero;stroke:none"
             id="path888" />
        </g>
        <g
           id="g890"
           transform="translate(241.3076,323.2661)">
          <path
             d="m 0,0 c 5.565,-0.438 10.224,-0.959 15.671,-2.18 l 7.482,-2.222 c 1.333,-2.684 -0.846,-8.195 -7.112,-9.24 0,0 -15.77,-2.177 -20.423,14.062 z"
             style="fill:#ffb670;fill-opacity:1;fill-rule:nonzero;stroke:none"
             id="path892" />
        </g>
        <g
           id="g894">
          <g
             id="g896" />
          <g
             id="g908">
            <g
               clip-path="url(#clipPath900)"
               opacity="0.199997"
               id="g906">
              <g
                 transform="translate(247.0186,337.3232)"
                 id="g904">
                <path
                   d="M 0,0 6.026,-5.997 C 5.772,-6.924 5.605,-7.874 5.527,-8.833 3.253,-8.167 -0.405,-5.656 -0.653,-3.257 -0.661,-2.138 -0.438,-1.03 0,0"
                   style="fill:#000000;fill-opacity:1;fill-rule:nonzero;stroke:none"
                   id="path902" />
              </g>
            </g>
          </g>
        </g>
        <g
           id="g910"
           transform="translate(236.1914,348.3525)">
          <path
             d="m 0,0 c 2.675,-8.463 3.621,-12.105 9.104,-15.435 8.188,-5.003 18.039,0.123 17.906,9.207 C 26.933,1.951 22.582,14.41 13.284,15.742 6.675,16.729 0.517,12.172 -0.471,5.563 -0.75,3.697 -0.588,1.792 0,0"
             style="fill:#ffb670;fill-opacity:1;fill-rule:nonzero;stroke:none"
             id="path912" />
        </g>
        <g
           id="g914"
           transform="translate(256.375,349.6719)">
          <path
             d="M 0,0 C 0.948,-1.492 2.099,-2.845 3.418,-4.021 2.789,-4.685 1.901,-5.041 0.988,-4.996 Z"
             style="fill:#ff8a35;fill-opacity:1;fill-rule:nonzero;stroke:none"
             id="path916" />
        </g>
        <g
           id="g918"
           transform="translate(255.4258,340.1548)">
          <path
             d="M 0,0 C 0.342,0.036 0.681,0.099 1.013,0.19 1.12,0.216 1.187,0.324 1.161,0.432 1.16,0.435 1.159,0.439 1.158,0.442 1.126,0.551 1.018,0.618 0.906,0.598 -0.849,0.11 -2.73,0.498 -4.15,1.638 -4.237,1.718 -4.372,1.712 -4.452,1.626 -4.531,1.54 -4.526,1.405 -4.439,1.325 -3.197,0.307 -1.598,-0.17 0,0"
             style="fill:#1a2e35;fill-opacity:1;fill-rule:nonzero;stroke:none"
             id="path920" />
        </g>
        <g
           id="g922"
           transform="translate(233.2822,365.2446)">
          <path
             d="m 0,0 c -2.211,-1.405 -3.659,-3.941 -3.746,-6.559 -0.017,-0.498 0.017,-1.012 0.231,-1.462 0.215,-0.45 0.646,-0.823 1.143,-0.85 0.764,-0.042 1.324,0.675 1.742,1.314 0.645,0.987 1.289,1.973 1.935,2.959 0.632,0.967 1.681,2.09 2.024,3.194 C 3.954,0.606 1.183,0.751 0,0"
             style="fill:#007cff;fill-opacity:1;fill-rule:nonzero;stroke:none"
             id="path924" />
        </g>
        <g
           id="g926"
           transform="translate(234.2324,363.25)">
          <path
             d="m 0,0 c -5.315,-6.137 -7.687,-23.129 7.864,-27.867 2.6,2.057 -1.598,5.804 -3.381,10.547 -1.166,3.103 4.76,8.894 7.075,11.267 2.314,2.372 4.435,5.809 7.704,5.259 0.855,-0.144 1.766,-0.428 2.556,-0.07 2.589,1.173 1.332,2.722 0.031,3.806 C 19.935,4.536 17.241,5.258 14.801,5.523 9.386,6.11 3.605,4.162 0,0"
             style="fill:#1a2e35;fill-opacity:1;fill-rule:nonzero;stroke:none"
             id="path928" />
        </g>
        <g
           id="g930"
           transform="translate(251.5049,365.3066)">
          <path
             d="m 0,0 c 6.242,-5.208 -2.029,-5.339 -6.372,-8.639 -4.194,-3.167 -1.254,-8.361 -8.341,-10.765 -5.792,-1.695 -7.129,-0.678 -8.732,0.444 0,0 6.564,0.825 7.528,8.198 C -15.422,-6.971 -7.146,6.043 0,0"
             style="fill:#1a2e35;fill-opacity:1;fill-rule:nonzero;stroke:none"
             id="path932" />
        </g>
        <g
           id="g934"
           transform="translate(235.249,341.2432)">
          <path
             d="M 0,0 C 0.977,-1.412 2.471,-2.382 4.157,-2.7 6.398,-3.093 7.261,-1.041 6.487,0.958 5.763,2.754 3.729,5.128 1.565,4.616 0.009,4.216 -0.93,2.63 -0.53,1.074 -0.43,0.683 -0.249,0.317 0,0"
             style="fill:#ffb670;fill-opacity:1;fill-rule:nonzero;stroke:none"
             id="path936" />
        </g>
        <g
           id="g938"
           transform="translate(250.4277,364.7793)">
          <path
             d="M 0,0 C 1.21,-3.077 4.7,-2.672 7.284,-5.891 8.871,-7.858 11.989,-1.722 7.746,0.713 3.502,3.149 -1.898,4.821 0,0"
             style="fill:#1a2e35;fill-opacity:1;fill-rule:nonzero;stroke:none"
             id="path940" />
        </g>
        <g
           id="g942"
           transform="translate(246.7539,351.7808)">
          <path
             d="M 0,0 C 0.181,-0.021 0.354,0.079 0.425,0.246 1.246,2.073 3.708,2.529 3.73,2.532 3.96,2.575 4.11,2.795 4.067,3.024 4.024,3.253 3.804,3.404 3.574,3.361 3.45,3.344 0.646,2.772 -0.35,0.572 -0.447,0.361 -0.356,0.111 -0.146,0.013 c 0,0 0,0 0.001,-10e-4 z"
             style="fill:#1a2e35;fill-opacity:1;fill-rule:nonzero;stroke:none"
             id="path944" />
        </g>
        <g
           id="g946"
           transform="translate(259.751,355.458)">
          <path
             d="M 0,0 C 0.149,-0.01 0.292,0.062 0.372,0.188 0.503,0.379 0.454,0.641 0.263,0.772 0.261,0.773 0.259,0.775 0.257,0.776 -0.868,1.55 -2.299,1.732 -3.581,1.264 -3.797,1.171 -3.896,0.922 -3.805,0.706 -3.712,0.49 -3.463,0.39 -3.247,0.483 -2.229,0.844 -1.098,0.687 -0.217,0.063 -0.148,0.028 -0.075,0.007 0,0"
             style="fill:#1a2e35;fill-opacity:1;fill-rule:nonzero;stroke:none"
             id="path948" />
        </g>
        <g
           id="g950"
           transform="translate(300.8613,300.7168)">
          <path
             d="m 0,0 -5.851,-3.33 -6.089,-13.097 c 0,0 5.88,-3.743 10.514,-0.713 C 3.208,-14.11 0,0 0,0"
             style="fill:#007cff;fill-opacity:1;fill-rule:nonzero;stroke:none"
             id="path952" />
        </g>
        <g
           id="g954">
          <g
             id="g956" />
          <g
             id="g968">
            <g
               clip-path="url(#clipPath960)"
               opacity="0.5"
               id="g966">
              <g
                 transform="translate(300.8613,300.7168)"
                 id="g964">
                <path
                   d="m 0,0 -5.851,-3.33 -6.089,-13.097 c 0,0 5.88,-3.743 10.514,-0.713 C 3.208,-14.11 0,0 0,0"
                   style="fill:#ffffff;fill-opacity:1;fill-rule:nonzero;stroke:none"
                   id="path962" />
              </g>
            </g>
          </g>
        </g>
        <g
           id="g970"
           transform="translate(198.3887,296.6689)">
          <path
             d="m 0,0 6.932,-1.959 6.571,-13.595 c 0,0 -5.286,-4.882 -10.996,-0.216 C -1.779,-12.266 0,0 0,0"
             style="fill:#007cff;fill-opacity:1;fill-rule:nonzero;stroke:none"
             id="path972" />
        </g>
        <g
           id="g974">
          <g
             id="g976" />
          <g
             id="g988">
            <g
               clip-path="url(#clipPath980)"
               opacity="0.5"
               id="g986">
              <g
                 transform="translate(198.3887,296.6689)"
                 id="g984">
                <path
                   d="m 0,0 6.932,-1.959 6.571,-13.595 c 0,0 -5.286,-4.882 -10.996,-0.216 C -1.779,-12.266 0,0 0,0"
                   style="fill:#ffffff;fill-opacity:1;fill-rule:nonzero;stroke:none"
                   id="path982" />
              </g>
            </g>
          </g>
        </g>
        <g
           id="g990"
           transform="translate(259.3477,352.0688)">
          <path
             d="M 0,0 C 0.48,0.09 0.98,-0.45 1.11,-1.19 1.24,-1.93 0.95,-2.61 0.471,-2.69 -0.01,-2.77 -0.51,-2.24 -0.64,-1.5 -0.779,-0.78 -0.479,-0.09 0,0"
             style="fill:#1a2e35;fill-opacity:1;fill-rule:nonzero;stroke:none"
             id="path992" />
        </g>
        <g
           id="g994"
           transform="translate(260.8281,352.7988)">
          <path
             d="M 0,0 -1.69,-0.83 C -0.67,-1.55 0,0 0,0"
             style="fill:#1a2e35;fill-opacity:1;fill-rule:nonzero;stroke:none"
             id="path996" />
        </g>
        <g
           id="g998"
           transform="translate(250.9766,350.355)">
          <path
             d="M 0,0 C 0.479,0.09 0.979,-0.45 1.109,-1.19 1.24,-1.93 0.95,-2.61 0.47,-2.69 -0.01,-2.77 -0.51,-2.24 -0.641,-1.5 -0.78,-0.78 -0.48,-0.09 0,0"
             style="fill:#1a2e35;fill-opacity:1;fill-rule:nonzero;stroke:none"
             id="path1000" />
        </g>
        <g
           id="g1002"
           transform="translate(252.4561,351.085)">
          <path
             d="M 0,0 -1.689,-0.83 C -0.67,-1.55 0,0 0,0"
             style="fill:#1a2e35;fill-opacity:1;fill-rule:nonzero;stroke:none"
             id="path1004" />
        </g>
        <g
           id="g1006"
           transform="translate(208.6621,312.0903)">
          <path
             d="m 0,0 c -0.953,0 -1.89,0.167 -2.753,0.52 -3.098,1.266 -4.541,4.493 -3.958,8.854 0.036,0.273 0.292,0.466 0.562,0.429 0.273,-0.037 0.465,-0.288 0.428,-0.562 -0.516,-3.874 0.702,-6.715 3.347,-7.795 2.859,-1.17 6.661,0 8.652,2.659 2.505,3.344 1.695,8.083 -2.224,13.001 -10.24,12.85 -9.554,19.684 -8.109,25.08 2.102,7.84 8.255,16.824 25.653,15.097 0.274,-0.028 0.474,-0.272 0.447,-0.547 -0.027,-0.275 -0.26,-0.471 -0.547,-0.448 C 4.812,57.949 -1.088,49.392 -3.088,41.927 -4.535,36.53 -5.114,30.216 4.835,17.729 10.836,10.198 8.403,5.273 7.079,3.505 5.423,1.294 2.648,0 0,0"
             style="fill:#1a2e35;fill-opacity:1;fill-rule:nonzero;stroke:none"
             id="path1008" />
        </g>
      </g>
    </g>
  </g>
</svg>
