<?xml version="1.0" encoding="UTF-8" standalone="no"?>
<!DOCTYPE svg PUBLIC "-//W3C//DTD SVG 1.1//EN"
 "http://www.w3.org/Graphics/SVG/1.1/DTD/svg11.dtd">
<!-- Generated by graphviz version 2.47.0 (20210316.0004)
 -->
<!-- Title: dependencies Pages: 1 -->
<svg width="579pt" height="284pt"
 viewBox="0.00 0.00 579.00 284.00" xmlns="http://www.w3.org/2000/svg" xmlns:xlink="http://www.w3.org/1999/xlink">
<g id="graph0" class="graph" transform="scale(1 1) rotate(0) translate(4 280)">
<title>dependencies</title>
<polygon fill="white" stroke="transparent" points="-4,4 -4,-280 575,-280 575,4 -4,4"/>
<text text-anchor="start" x="264.51" y="-42.4" font-family="Times-12" font-weight="bold" font-size="14.00">Legend</text>
<polygon fill="#ffffb3" stroke="transparent" points="51.5,-10 51.5,-30 71.5,-30 71.5,-10 51.5,-10"/>
<text text-anchor="start" x="75.13" y="-15.4" font-family="Times-12" font-size="14.00"> &#160;Declarations</text>
<polygon fill="#8dd3c7" stroke="transparent" points="164.5,-10 164.5,-30 184.5,-30 184.5,-10 164.5,-10"/>
<text text-anchor="start" x="188.23" y="-15.4" font-family="Times-12" font-size="14.00"> &#160;Module</text>
<polygon fill="#80b1d3" stroke="transparent" points="250.5,-10 250.5,-30 270.5,-30 270.5,-10 250.5,-10"/>
<text text-anchor="start" x="274.28" y="-15.4" font-family="Times-12" font-size="14.00"> &#160;Bootstrap</text>
<polygon fill="#fdb462" stroke="transparent" points="347.5,-10 347.5,-30 367.5,-30 367.5,-10 347.5,-10"/>
<text text-anchor="start" x="371.17" y="-15.4" font-family="Times-12" font-size="14.00"> &#160;Providers</text>
<polygon fill="#fb8072" stroke="transparent" points="443.5,-10 443.5,-30 463.5,-30 463.5,-10 443.5,-10"/>
<text text-anchor="start" x="467.23" y="-15.4" font-family="Times-12" font-size="14.00"> &#160;Exports</text>
<g id="clust1" class="cluster">
<title>cluster_AppModule</title>
<polygon fill="none" stroke="black" stroke-dasharray="1,5" points="8,-70 8,-268 563,-268 563,-70 8,-70"/>
</g>
<g id="clust6" class="cluster">
<title>cluster_AppModule_imports</title>
<polygon fill="none" stroke="black" points="411,-78 411,-130 555,-130 555,-78 411,-78"/>
</g>
<g id="clust8" class="cluster">
<title>cluster_AppModule_bootstrap</title>
<polygon fill="none" stroke="black" points="216,-208 216,-260 340,-260 340,-208 216,-208"/>
</g>
<g id="clust2" class="cluster">
<title>cluster_AppModule_declarations</title>
<polygon fill="none" stroke="black" points="16,-78 16,-130 403,-130 403,-78 16,-78"/>
</g>
<!-- AppComponent -->
<g id="node1" class="node">
<title>AppComponent</title>
<polygon fill="#ffffb3" stroke="black" points="394.94,-122 289.06,-122 289.06,-86 394.94,-86 394.94,-122"/>
<text text-anchor="middle" x="342" y="-99.8" font-family="Times,serif" font-size="14.00">AppComponent</text>
</g>
<!-- AppModule -->
<g id="node4" class="node">
<title>AppModule</title>
<polygon fill="#8dd3c7" stroke="black" points="319.66,-187 316.66,-191 295.66,-191 292.66,-187 236.34,-187 236.34,-151 319.66,-151 319.66,-187"/>
<text text-anchor="middle" x="278" y="-164.8" font-family="Times,serif" font-size="14.00">AppModule</text>
</g>
<!-- AppComponent&#45;&gt;AppModule -->
<g id="edge1" class="edge">
<title>AppComponent&#45;&gt;AppModule</title>
<path fill="none" stroke="black" d="M304.55,-122.11C304.55,-122.11 304.55,-140.99 304.55,-140.99"/>
<polygon fill="black" stroke="black" points="301.05,-140.99 304.55,-150.99 308.05,-140.99 301.05,-140.99"/>
</g>
<!-- HomeComponent -->
<g id="node2" class="node">
<title>HomeComponent</title>
<polygon fill="#ffffb3" stroke="black" points="271.55,-122 156.45,-122 156.45,-86 271.55,-86 271.55,-122"/>
<text text-anchor="middle" x="214" y="-99.8" font-family="Times,serif" font-size="14.00">HomeComponent</text>
</g>
<!-- HomeComponent&#45;&gt;AppModule -->
<g id="edge2" class="edge">
<title>HomeComponent&#45;&gt;AppModule</title>
<path fill="none" stroke="black" d="M253.97,-122.11C253.97,-122.11 253.97,-140.99 253.97,-140.99"/>
<polygon fill="black" stroke="black" points="250.47,-140.99 253.97,-150.99 257.47,-140.99 250.47,-140.99"/>
</g>
<!-- LoginComponent -->
<g id="node3" class="node">
<title>LoginComponent</title>
<polygon fill="#ffffb3" stroke="black" points="138.28,-122 23.72,-122 23.72,-86 138.28,-86 138.28,-122"/>
<text text-anchor="middle" x="81" y="-99.8" font-family="Times,serif" font-size="14.00">LoginComponent</text>
</g>
<!-- LoginComponent&#45;&gt;AppModule -->
<g id="edge3" class="edge">
<title>LoginComponent&#45;&gt;AppModule</title>
<path fill="none" stroke="black" d="M81,-122.11C81,-141.34 81,-169 81,-169 81,-169 226.22,-169 226.22,-169"/>
<polygon fill="black" stroke="black" points="226.22,-172.5 236.22,-169 226.22,-165.5 226.22,-172.5"/>
</g>
<!-- AppComponent  -->
<g id="node6" class="node">
<title>AppComponent </title>
<polygon fill="#80b1d3" stroke="black" points="332.44,-252 223.56,-252 223.56,-216 332.44,-216 332.44,-252"/>
<text text-anchor="middle" x="278" y="-229.8" font-family="Times,serif" font-size="14.00">AppComponent </text>
</g>
<!-- AppModule&#45;&gt;AppComponent  -->
<g id="edge5" class="edge">
<title>AppModule&#45;&gt;AppComponent </title>
<path fill="none" stroke="black" stroke-dasharray="1,5" d="M278,-187.11C278,-187.11 278,-205.99 278,-205.99"/>
<polygon fill="black" stroke="black" points="274.5,-205.99 278,-215.99 281.5,-205.99 274.5,-205.99"/>
</g>
<!-- AppRoutingModule -->
<g id="node5" class="node">
<title>AppRoutingModule</title>
<polygon fill="#8dd3c7" stroke="black" points="547.27,-122 544.27,-126 523.27,-126 520.27,-122 418.73,-122 418.73,-86 547.27,-86 547.27,-122"/>
<text text-anchor="middle" x="483" y="-99.8" font-family="Times,serif" font-size="14.00">AppRoutingModule</text>
</g>
<!-- AppRoutingModule&#45;&gt;AppModule -->
<g id="edge4" class="edge">
<title>AppRoutingModule&#45;&gt;AppModule</title>
<path fill="none" stroke="black" d="M483,-122.11C483,-141.34 483,-169 483,-169 483,-169 329.98,-169 329.98,-169"/>
<polygon fill="black" stroke="black" points="329.98,-165.5 319.98,-169 329.98,-172.5 329.98,-165.5"/>
</g>
</g>
</svg>
